<?xml version="1.0" encoding="UTF-8" standalone="no"?>
<svg
   xmlns:dc="http://purl.org/dc/elements/1.1/"
   xmlns:cc="http://creativecommons.org/ns#"
   xmlns:rdf="http://www.w3.org/1999/02/22-rdf-syntax-ns#"
   xmlns:svg="http://www.w3.org/2000/svg"
   xmlns="http://www.w3.org/2000/svg"
   xmlns:sodipodi="http://sodipodi.sourceforge.net/DTD/sodipodi-0.dtd"
   xmlns:inkscape="http://www.inkscape.org/namespaces/inkscape"
   version="1.1"
   id="Capa_1"
   x="0px"
   y="0px"
   viewBox="0 0 511.995 511.995"
   style="enable-background:new 0 0 511.995 511.995;"
   xml:space="preserve"
   sodipodi:docname="cancel.svg"
   inkscape:version="1.0.1 (3bc2e813f5, 2020-09-07)"><metadata
   id="metadata12962"><rdf:RDF><cc:Work
       rdf:about=""><dc:format>image/svg+xml</dc:format><dc:type
         rdf:resource="http://purl.org/dc/dcmitype/StillImage" /></cc:Work></rdf:RDF></metadata><defs
   id="defs12960" /><sodipodi:namedview
   pagecolor="#ffffff"
   bordercolor="#666666"
   borderopacity="1"
   objecttolerance="10"
   gridtolerance="10"
   guidetolerance="10"
   inkscape:pageopacity="0"
   inkscape:pageshadow="2"
   inkscape:window-width="1920"
   inkscape:window-height="1017"
   id="namedview12958"
   showgrid="false"
   inkscape:zoom="1.7793143"
   inkscape:cx="257.12153"
   inkscape:cy="255.9975"
   inkscape:window-x="0"
   inkscape:window-y="27"
   inkscape:window-maximized="1"
   inkscape:current-layer="Capa_1"
   inkscape:document-rotation="0" />
<g
   id="g12919"
   style="fill:#9319b6;fill-opacity:1">
	<g
   id="g12917"
   style="fill:#9319b6;fill-opacity:1">
		<path
   d="M437.126,74.939c-99.826-99.826-262.307-99.826-362.133,0C26.637,123.314,0,187.617,0,256.005    s26.637,132.691,74.993,181.047c49.923,49.923,115.495,74.874,181.066,74.874s131.144-24.951,181.066-74.874    C536.951,337.226,536.951,174.784,437.126,74.939z M409.08,409.006c-84.375,84.375-221.667,84.375-306.042,0    c-40.858-40.858-63.37-95.204-63.37-153.001s22.512-112.143,63.37-153.021c84.375-84.375,221.667-84.355,306.042,0    C493.435,187.359,493.435,324.651,409.08,409.006z"
   id="path12915"
   style="fill:#9319b6;fill-opacity:1" />
	</g>
</g>
<g
   id="g12925"
   style="fill:#9319b6;fill-opacity:1">
	<g
   id="g12923"
   style="fill:#9319b6;fill-opacity:1">
		<path
   d="M341.525,310.827l-56.151-56.071l56.151-56.071c7.735-7.735,7.735-20.29,0.02-28.046    c-7.755-7.775-20.31-7.755-28.065-0.02l-56.19,56.111l-56.19-56.111c-7.755-7.735-20.31-7.755-28.065,0.02    c-7.735,7.755-7.735,20.31,0.02,28.046l56.151,56.071l-56.151,56.071c-7.755,7.735-7.755,20.29-0.02,28.046    c3.868,3.887,8.965,5.811,14.043,5.811s10.155-1.944,14.023-5.792l56.19-56.111l56.19,56.111    c3.868,3.868,8.945,5.792,14.023,5.792c5.078,0,10.175-1.944,14.043-5.811C349.28,331.117,349.28,318.562,341.525,310.827z"
   id="path12921"
   style="fill:#9319b6;fill-opacity:1" />
	</g>
</g>
<g
   id="g12927"
   style="fill:#9319b6;fill-opacity:1">
</g>
<g
   id="g12929"
   style="fill:#9319b6;fill-opacity:1">
</g>
<g
   id="g12931"
   style="fill:#9319b6;fill-opacity:1">
</g>
<g
   id="g12933"
   style="fill:#9319b6;fill-opacity:1">
</g>
<g
   id="g12935"
   style="fill:#9319b6;fill-opacity:1">
</g>
<g
   id="g12937"
   style="fill:#9319b6;fill-opacity:1">
</g>
<g
   id="g12939"
   style="fill:#9319b6;fill-opacity:1">
</g>
<g
   id="g12941"
   style="fill:#9319b6;fill-opacity:1">
</g>
<g
   id="g12943"
   style="fill:#9319b6;fill-opacity:1">
</g>
<g
   id="g12945"
   style="fill:#9319b6;fill-opacity:1">
</g>
<g
   id="g12947"
   style="fill:#9319b6;fill-opacity:1">
</g>
<g
   id="g12949"
   style="fill:#9319b6;fill-opacity:1">
</g>
<g
   id="g12951"
   style="fill:#9319b6;fill-opacity:1">
</g>
<g
   id="g12953"
   style="fill:#9319b6;fill-opacity:1">
</g>
<g
   id="g12955"
   style="fill:#9319b6;fill-opacity:1">
</g>
</svg>
