<?xml version="1.0" encoding="UTF-8" standalone="no"?>
<svg
   xmlns:dc="http://purl.org/dc/elements/1.1/"
   xmlns:cc="http://creativecommons.org/ns#"
   xmlns:rdf="http://www.w3.org/1999/02/22-rdf-syntax-ns#"
   xmlns:svg="http://www.w3.org/2000/svg"
   xmlns="http://www.w3.org/2000/svg"
   xmlns:sodipodi="http://sodipodi.sourceforge.net/DTD/sodipodi-0.dtd"
   xmlns:inkscape="http://www.inkscape.org/namespaces/inkscape"
   width="11.493mm"
   height="11.209mm"
   viewBox="0 0 11.493 11.209"
   version="1.1"
   id="svg864"
   inkscape:version="1.0.1 (3bc2e813f5, 2020-09-07)"
   sodipodi:docname="github.svg">
  <defs
     id="defs858">
    <clipPath
       clipPathUnits="userSpaceOnUse"
       id="clipPath884">
      <path
         d="M 0,551.986 H 530.973 V 0 H 0 Z"
         id="path882" />
    </clipPath>
  </defs>
  <sodipodi:namedview
     id="base"
     pagecolor="#ffffff"
     bordercolor="#666666"
     borderopacity="1.0"
     inkscape:pageopacity="0.0"
     inkscape:pageshadow="2"
     inkscape:zoom="1.312531"
     inkscape:cx="132.24598"
     inkscape:cy="221.70101"
     inkscape:document-units="mm"
     inkscape:current-layer="layer1"
     inkscape:document-rotation="0"
     showgrid="false"
     inkscape:window-width="1920"
     inkscape:window-height="1017"
     inkscape:window-x="0"
     inkscape:window-y="27"
     inkscape:window-maximized="1" />
  <metadata
     id="metadata861">
    <rdf:RDF>
      <cc:Work
         rdf:about="">
        <dc:format>image/svg+xml</dc:format>
        <dc:type
           rdf:resource="http://purl.org/dc/dcmitype/StillImage" />
        <dc:title></dc:title>
      </cc:Work>
    </rdf:RDF>
  </metadata>
  <g
     inkscape:label="Layer 1"
     inkscape:groupmode="layer"
     id="layer1">
    <path
       d="m 5.746013,-2.3553804e-4 c -3.173236,0 -5.746043984741,2.57280803804 -5.746043984741,5.74675003804 0,2.538941 1.646413984741,4.6926445 3.929943984741,5.4528845 0.287514,0.0526 0.392289,-0.12488 0.392289,-0.27728 0,-0.13617 -0.0049,-0.49777 -0.0078,-0.9771995 C 2.715966,10.292059 2.37871,9.1744555 2.37871,9.1744555 2.117302,8.5108805 1.740535,8.3341395 1.740535,8.3341395 c -0.521758,-0.356659 0.03951,-0.349603 0.03951,-0.349603 0.576792,0.04092 0.880181,0.592314 0.880181,0.592314 0.512586,0.878059 1.345141,0.624417 1.672519,0.477661 0.05221,-0.371475 0.200378,-0.624769 0.364772,-0.76835 -1.275997,-0.144992 -2.617611,-0.638175 -2.617611,-2.840214 0,-0.627239 0.224014,-1.140178 0.591609,-1.541991 -0.05927,-0.145345 -0.25647,-0.729545 0.05609,-1.520825 0,0 0.4826,-0.154517 1.580445,0.589138 0.458258,-0.127352 0.95003,-0.191205 1.438628,-0.193322 0.487891,0.0021 0.979663,0.06597 1.438627,0.193322 1.097139,-0.743655 1.578681,-0.589138 1.578681,-0.589138 0.313619,0.79128 0.116416,1.37548 0.05715,1.520825 0.3683,0.401813 0.590903,0.914752 0.590903,1.541991 0,2.207683 -1.343731,2.693458 -2.623961,2.835628 0.206375,0.177447 0.390172,0.528108 0.390172,1.064334 0,0.7679895 -0.0071,1.3878195 -0.0071,1.5762095 0,0.15381 0.103364,0.33267 0.395111,0.27658 2.281767,-0.76165 3.92677,-2.9139485 3.92677,-5.4521845 0,-3.173942 -2.573161,-5.74675003804 -5.747103,-5.74675003804"
       style="fill:#0f0e2b;fill-opacity:1;fill-rule:evenodd;stroke:none;stroke-width:0.352778"
       id="path888" />
  </g>
</svg>
