<?xml version="1.0" encoding="UTF-8" standalone="no"?>
<svg
   xmlns:dc="http://purl.org/dc/elements/1.1/"
   xmlns:cc="http://creativecommons.org/ns#"
   xmlns:rdf="http://www.w3.org/1999/02/22-rdf-syntax-ns#"
   xmlns:svg="http://www.w3.org/2000/svg"
   xmlns="http://www.w3.org/2000/svg"
   xmlns:sodipodi="http://sodipodi.sourceforge.net/DTD/sodipodi-0.dtd"
   xmlns:inkscape="http://www.inkscape.org/namespaces/inkscape"
   width="13.185mm"
   height="11.209mm"
   viewBox="0 0 13.185 11.209"
   version="1.1"
   id="svg864"
   inkscape:version="1.0.1 (3bc2e813f5, 2020-09-07)"
   sodipodi:docname="linkedin.svg">
  <defs
     id="defs858">
    <clipPath
       clipPathUnits="userSpaceOnUse"
       id="clipPath884">
      <path
         d="M 0,551.986 H 530.973 V 0 H 0 Z"
         id="path882" />
    </clipPath>
  </defs>
  <sodipodi:namedview
     id="base"
     pagecolor="#ffffff"
     bordercolor="#666666"
     borderopacity="1.0"
     inkscape:pageopacity="0.0"
     inkscape:pageshadow="2"
     inkscape:zoom="7.4781705"
     inkscape:cx="-1.5545056"
     inkscape:cy="34.565201"
     inkscape:document-units="mm"
     inkscape:current-layer="layer1"
     inkscape:document-rotation="0"
     showgrid="false"
     inkscape:window-width="1920"
     inkscape:window-height="1017"
     inkscape:window-x="0"
     inkscape:window-y="27"
     inkscape:window-maximized="1" />
  <metadata
     id="metadata861">
    <rdf:RDF>
      <cc:Work
         rdf:about="">
        <dc:format>image/svg+xml</dc:format>
        <dc:type
           rdf:resource="http://purl.org/dc/dcmitype/StillImage" />
        <dc:title></dc:title>
      </cc:Work>
    </rdf:RDF>
  </metadata>
  <g
     inkscape:label="Layer 1"
     inkscape:groupmode="layer"
     id="layer1">
    <path
       style="fill:#0f0e2b;fill-opacity:1;stroke-width:0.0210209"
       d="m 12.106206,10.499519 c -0.228656,-0.02078 -0.389671,-0.223118 -0.486197,-0.430683 -0.04574,-0.098359 -0.05492,-0.1480536 -0.05474,-0.2968152 2.74e-4,-0.2384538 0.06833,-0.3941487 0.243087,-0.5559427 0.156259,-0.1446672 0.299555,-0.200807 0.512565,-0.200807 0.302591,0 0.55006,0.1573422 0.687926,0.4373858 0.06116,0.1242521 0.06864,0.1585581 0.06716,0.3084118 -0.0042,0.4267603 -0.303542,0.7430873 -0.719649,0.7605853 -0.09854,0.0041 -0.193535,-0.01699 -0.250133,-0.02213 z m 0.503689,-0.112703 c 0.139597,-0.06114 0.271208,-0.192631 0.338153,-0.337827 0.03581,-0.077645 0.0453,-0.1380052 0.04523,-0.287474 -6.5e-5,-0.1639239 -0.0076,-0.2033347 -0.05582,-0.2951355 -0.06808,-0.1294294 -0.218206,-0.271457 -0.350094,-0.3312206 -0.14843,-0.067258 -0.39635,-0.063107 -0.550235,0.00927 -0.138936,0.065293 -0.2577,0.1804138 -0.333071,0.3228586 -0.04884,0.092314 -0.05562,0.1294093 -0.05565,0.3048031 -4.3e-5,0.1679013 0.0077,0.2140722 0.04811,0.2899834 0.185778,0.348357 0.557691,0.480613 0.913386,0.324807 z M 12.058151,9.7720208 V 9.3726253 h 0.219105 c 0.20367,0 0.223556,0.00373 0.282236,0.053123 0.127823,0.1075474 0.09704,0.2959233 -0.05924,0.3625356 l -0.08515,0.036289 0.116175,0.1734222 c 0.113373,0.1692309 0.114887,0.1734219 0.06278,0.1734219 -0.04395,0 -0.07379,-0.03161 -0.168657,-0.1786768 C 12.316934,9.8246011 12.305808,9.8140621 12.236691,9.8140621 h -0.07345 v 0.1786781 c 0,0.1765748 -5.95e-4,0.1786768 -0.05256,0.1786768 h -0.05254 z m 0.415739,-0.074764 c 0.02997,-0.029974 0.04672,-0.053819 0.04672,-0.1148757 0,-0.1044263 -0.03708,-0.1256726 -0.219337,-0.1256726 h -0.138015 v 0.1366358 0.1366358 h 0.131958 c 0.08541,0 0.152576,-0.00662 0.178677,-0.032722 z M 0.56222898,11.184021 C 0.44376003,11.146897 0.27954142,11.039769 0.19702667,10.94579 0.1603183,10.903984 0.10093652,10.807842 0.0650653,10.732146 L -1.5444623e-4,10.594514 V 5.6009763 0.6074347 L 0.07914417,0.44698698 C 0.16938016,0.26440686 0.28580808,0.14862642 0.47026841,0.05803906 L 0.58842981,6.1002515e-6 H 5.6124116 10.636395 L 10.754555,0.05803903 c 0.184461,0.09059204 0.300889,0.2063678 0.391125,0.38894795 l 0.0793,0.16044772 v 4.9946315 4.9946318 l -0.0793,0.160449 c -0.09024,0.18258 -0.206664,0.29836 -0.391125,0.388948 l -0.11816,0.05803 -4.9924522,0.0039 c -4.1052586,0.0032 -5.00831317,-10e-4 -5.08171301,-0.02403 z M 3.3316492,6.8843346 V 4.1936695 H 2.4908155 1.6499819 V 6.884338 9.575007 h 0.8408336 0.8408337 z m 2.717276,1.1298709 C 6.0576053,6.279154 6.0557444,6.3036629 6.2009149,6.0086471 6.2958527,5.8157063 6.450599,5.6701534 6.6352978,5.6000736 c 0.1149541,-0.04362 0.1694208,-0.050566 0.3964966,-0.050566 0.2558703,0 0.2672204,0.00196 0.4055559,0.070077 0.2336012,0.1150256 0.3605095,0.3165796 0.4257508,0.6761609 0.022408,0.1234919 0.028763,0.495883 0.029339,1.718454 l 7.449e-4,1.5607979 h 0.8420813 0.8420816 l -0.00844,-1.8445797 c -0.00809,-1.783 -0.00994,-1.8525321 -0.053762,-2.0831116 C 9.4157132,5.1243686 9.2750217,4.8203872 9.0072669,4.5499636 8.7111021,4.2508483 8.373156,4.1129931 7.8203476,4.0657947 7.2518712,4.0172624 6.8442257,4.1184993 6.4532335,4.4053239 6.3183622,4.5042608 6.127559,4.7053708 6.0448986,4.8357132 L 5.9802649,4.9376321 V 4.5656513 4.1936706 H 5.1709758 4.3616734 V 6.8843392 9.575008 H 5.2013948 6.0411165 Z M 2.7831953,3.4181151 C 3.4761214,3.2024523 3.689383,2.3234628 3.1738583,1.807938 2.9797465,1.6138263 2.765393,1.5250502 2.4908155,1.5250502 c -0.548123,0 -0.9669588,0.4175495 -0.9669588,0.9639886 0,0.4328165 0.2633013,0.7988171 0.667663,0.9280823 0.1637944,0.052358 0.4252227,0.052797 0.5916756,9.94e-4 z"
       id="path2056"
       sodipodi:nodetypes="ssssscccssccccsccccccccsccccscscssccssscccssscsscccccccccscccsscccccccccccccsccscsccccccsccscccccccccscssscc" />
  </g>
</svg>
