<?xml version="1.0" standalone="no"?>
<!DOCTYPE svg PUBLIC "-//W3C//DTD SVG 20010904//EN"
 "http://www.w3.org/TR/2001/REC-SVG-20010904/DTD/svg10.dtd">
<svg version="1.0" xmlns="http://www.w3.org/2000/svg"
 width="260.000000pt" height="260.000000pt" viewBox="0 0 260.000000 260.000000"
 preserveAspectRatio="xMidYMid meet">
<metadata>
Created by potrace 1.11, written by Peter Selinger 2001-2013
</metadata>
<g transform="translate(0.000000,260.000000) scale(0.100000,-0.100000)"
fill="#000000" stroke="none">
<path d="M1823 2514 c-31 -16 -51 -47 -71 -114 -11 -35 -46 -211 -57 -285 -3
-22 -10 -69 -16 -105 -6 -36 -12 -76 -14 -90 -3 -28 -34 -241 -39 -268 -2 -9
-7 -42 -11 -72 -4 -30 -9 -63 -11 -72 -4 -24 -33 -225 -39 -273 -3 -22 -10
-69 -16 -105 -5 -36 -12 -76 -14 -90 -2 -14 -7 -45 -11 -70 -4 -25 -8 -52 -9
-60 -1 -8 -5 -34 -9 -58 -4 -23 -9 -52 -11 -65 -6 -46 -29 -177 -40 -227 -2
-8 -4 -26 -4 -39 -2 -57 -16 0 -26 104 -3 33 -7 69 -9 80 -2 11 -7 60 -11 108
-3 49 -8 98 -10 110 -2 12 -6 63 -10 112 -3 50 -8 108 -10 130 -3 22 -7 69
-10 105 -3 36 -7 85 -10 110 -2 25 -7 79 -10 120 -3 41 -8 89 -10 105 -4 35
-17 157 -20 200 -3 37 -15 141 -20 175 -2 14 -6 48 -10 75 -39 312 -88 433
-180 451 -69 13 -124 -24 -168 -111 -27 -54 -93 -278 -110 -375 -3 -14 -10
-43 -15 -65 -6 -22 -14 -55 -17 -73 -3 -18 -12 -65 -21 -105 -8 -39 -17 -88
-20 -107 -3 -19 -7 -42 -9 -50 -3 -8 -7 -32 -11 -54 -3 -21 -8 -48 -10 -60
-12 -55 -23 -115 -29 -156 -4 -25 -8 -50 -9 -57 -1 -7 -4 -15 -7 -18 -3 -3 -4
32 -2 77 6 164 6 544 -1 582 -17 104 -88 154 -166 117 -52 -24 -73 -65 -135
-259 -86 -270 -104 -320 -151 -417 -49 -99 -49 -100 -116 -200 -53 -79 -55
-110 -10 -145 30 -24 89 -26 119 -5 51 35 167 227 227 375 19 44 35 83 38 85
5 6 0 -205 -18 -660 -4 -88 -7 -268 -7 -400 -1 -203 2 -245 15 -271 23 -42 41
-55 86 -61 45 -6 85 15 106 56 13 25 40 123 51 186 3 17 16 93 30 170 14 77
27 151 30 165 4 24 51 304 61 365 3 17 7 37 9 45 2 8 6 31 9 50 3 19 17 100
31 180 14 80 28 161 31 180 3 19 12 65 20 102 7 37 16 80 19 95 36 206 107
499 116 476 3 -10 12 -58 19 -108 6 -49 13 -101 15 -115 2 -14 7 -56 11 -95 3
-38 8 -77 9 -86 2 -8 6 -53 10 -100 3 -46 8 -100 10 -119 2 -19 7 -66 10 -105
3 -38 8 -88 10 -110 12 -128 24 -266 30 -340 3 -33 7 -82 10 -110 2 -27 7 -77
10 -110 3 -33 7 -76 10 -95 2 -19 7 -60 10 -90 3 -30 8 -66 10 -80 2 -14 7
-47 10 -75 5 -43 15 -105 32 -194 10 -57 46 -122 77 -139 75 -39 138 -19 180
59 25 44 75 217 90 309 3 19 8 46 11 60 8 37 46 260 50 293 2 16 6 40 9 55 3
15 8 43 10 62 3 19 7 44 10 55 2 11 7 47 11 80 3 32 8 62 10 65 2 3 6 34 10
70 4 36 8 67 10 70 2 3 6 30 9 60 4 30 9 66 11 80 9 48 14 85 20 130 11 91 33
211 39 217 3 3 6 -32 7 -78 0 -46 2 -111 4 -144 1 -33 6 -130 10 -215 4 -85 8
-182 10 -215 9 -141 16 -243 21 -290 12 -123 15 -152 19 -175 3 -14 7 -41 10
-60 11 -66 39 -140 64 -171 48 -56 132 -67 196 -25 67 44 139 200 248 537 125
386 131 406 117 439 -15 36 -72 61 -113 49 -47 -13 -64 -36 -87 -112 -88 -299
-189 -599 -223 -664 -14 -25 -14 -23 -22 43 -4 38 -8 77 -10 86 -2 9 -6 63
-10 120 -11 147 -12 167 -19 328 -4 80 -9 177 -11 215 -2 39 -7 144 -10 235
-13 364 -30 625 -46 725 -21 123 -88 172 -176 129z"/>
</g>
</svg>
