<svg height="512pt" viewBox="0 -6 512.00036 512" width="512pt" xmlns="http://www.w3.org/2000/svg"><path d="m174.757812 371.742188c3.902344-3.90625 3.902344-10.238282 0-14.144532l-30.496093-30.496094c-3.90625-3.902343-10.238281-3.902343-14.144531 0-3.902344 3.90625-3.902344 10.238282 0 14.144532l30.496093 30.496094c1.953125 1.953124 4.511719 2.929687 7.070313 2.929687 2.5625 0 5.121094-.976563 7.074218-2.929687zm0 0"/><path d="m102.003906 355.214844c-3.902344 3.90625-3.902344 10.234375 0 14.140625l30.496094 30.5c1.953125 1.953125 4.511719 2.929687 7.070312 2.929687 2.5625 0 5.121094-.976562 7.074219-2.929687 3.902344-3.90625 3.902344-10.238281 0-14.144531l-30.5-30.496094c-3.902343-3.902344-10.230469-3.902344-14.140625 0zm0 0"/><path d="m503.386719 8.644531c-9.042969-9.046875-22.785157-11.226562-34.183594-5.425781l-79.707031 40.550781c-3.59375 1.828125-5.734375 5.636719-5.4375 9.65625l1.117187 14.945313-136.210937 136.210937c-4.445313-17.167969.402344-35.546875 13.199218-48.339843 15.339844-15.339844 21.738282-37.152344 17.113282-58.347657-1.710938-7.84375-7.558594-14.121093-15.265625-16.382812-7.699219-2.261719-16.019531-.136719-21.695313 5.542969l-21.359375 21.355468c-29.363281 29.363282-51.957031 63.847656-67.15625 102.492188-6.40625 16.285156-21.851562 26.882812-39.347656 27.007812l-22.175781.15625c-7.074219.050782-14.144532.910156-21.023438 2.5625-5.371094 1.289063-8.679687 6.6875-7.390625 12.058594 1.101563 4.585938 5.199219 7.667969 9.714844 7.667969.773437 0 1.558594-.09375 2.34375-.28125 5.394531-1.292969 10.945313-1.96875 16.496094-2.007813l22.175781-.15625c25.710938-.183594 48.40625-15.761718 57.816406-39.6875 14.1875-36.074218 35.28125-68.261718 62.6875-95.667968l21.359375-21.359376c.542969-.542968 1.1875-.707031 1.925781-.492187.734376.214844 1.191407.707031 1.355469 1.453125 3.164063 14.511719-1.214843 29.441406-11.71875 39.941406-20.140625 20.144532-26.191406 50.195313-15.410156 76.566406.21875.53125.484375 1.023438.777344 1.496094l-38.257813 38.257813-1.566406-1.570313c-3.90625-3.902344-10.238281-3.902344-14.144531 0l-28.113281 28.113282c-3.902344 3.90625-3.902344 10.238281 0 14.144531l51.261718 51.261719c1.953125 1.949218 4.511719 2.925781 7.070313 2.925781 2.558593 0 5.117187-.976563 7.070312-2.925781l28.113281-28.113282c3.90625-3.90625 3.90625-10.238281 0-14.144531l-1.566406-1.566406 38.359375-38.363281c20.558594 17.441406 46.273438 27.558593 73.441407 28.703124l11.4375.480469c2.113281.089844 2.980468 1.519531 3.3125 2.367188.328124.84375.660156 2.488281-.835938 3.980469-10.15625 10.15625-22.890625 17.351562-36.832031 20.8125l-37.574219 9.316406c-24.371094 6.046875-42.710938 25.96875-46.722656 50.757812l-5.347656 33.03125c-2.460938 15.207032-9.519532 29-20.414063 39.894532l-1.285156 1.285156c-28.417969 28.417968-74.660157 28.417968-103.078125 0l-37.335938-37.332032-38.984375-38.988281c-18.0625-18.058593-25.292969-43.691406-19.347656-68.5625 1.285156-5.371093-2.027344-10.769531-7.398437-12.050781-5.359376-1.289062-10.765626 2.027344-12.050782 7.398438-7.574218 31.6875 1.640625 64.34375 24.652344 87.355468l38.988281 38.988282 37.335938 37.332031c18.105469 18.109375 41.890625 27.160156 65.675781 27.160156 23.789062 0 47.574219-9.054687 65.683594-27.160156l1.285156-1.289063c13.882812-13.878906 22.878906-31.457031 26.015625-50.835937l5.34375-33.03125c2.730469-16.871094 15.214844-30.429688 31.800781-34.542969l37.574219-9.320312c17.46875-4.332032 33.429687-13.351563 46.15625-26.078126 6.757813-6.757812 8.796875-16.484374 5.328125-25.386718-3.472656-8.902344-11.558594-14.683594-21.105469-15.085938l-11.4375-.480468c-22.136719-.929688-43.125-9-60.082031-22.921876l137.695312-137.695312 18.488282-2.410156c3.183594-.414063 5.972656-2.335938 7.5-5.15625l17.117187-31.644532 26.773438-26.769531c11.484375-11.484375 11.484375-30.171875 0-41.65625zm-115.832031 125.308594-19.839844-19.839844 25.46875-25.46875 19.839844 19.839844zm-39.609376 39.613281-19.839843-19.839844 25.46875-25.46875 19.839843 19.839844zm-39.613281 39.609375-19.839843-19.839843 25.46875-25.46875 19.84375 19.839843zm-34.074219 34.078125c-.003906.003906-.007812.003906-.007812.007813-.003906.003906-.003906.003906-.007812.007812l-5.519532 5.519531-19.839844-19.839843 25.46875-25.472657 19.839844 19.84375zm-64.621093 81.898438-37.117188-37.121094 13.96875-13.972656 37.121094 37.121094zm-.367188-56.59375 25.46875-25.46875 19.84375 19.839844-25.46875 25.46875zm279.976563-236.398438-27.800782 27.800782c-.683593.683593-1.265624 1.464843-1.722656 2.3125l-15.382812 28.429687-14.875 1.941406-23.910156-23.910156-1.054688-14.160156 73.769531-37.53125c3.660157-1.863281 8.070313-1.164063 10.976563 1.742187 3.6875 3.6875 3.6875 9.6875 0 13.375zm0 0"/><path d="m211.714844 418.695312c2.628906 0 5.199218-1.070312 7.066406-2.929687 1.859375-1.859375 2.921875-4.4375 2.921875-7.070313 0-2.640624-1.0625-5.207031-2.921875-7.070312-1.867188-1.859375-4.4375-2.929688-7.066406-2.929688-2.640625 0-5.210938 1.070313-7.082032 2.929688-1.859374 1.863281-2.917968 4.429688-2.917968 7.070312 0 2.632813 1.058594 5.210938 2.917968 7.070313 1.871094 1.859375 4.441407 2.929687 7.082032 2.929687zm0 0"/><path d="m192.496094 435.714844c-2.632813 0-5.199219 1.058594-7.070313 2.929687-1.859375 1.859375-2.929687 4.429688-2.929687 7.070313 0 2.628906 1.066406 5.207031 2.929687 7.066406 1.859375 1.859375 4.4375 2.929688 7.070313 2.929688 2.636718 0 5.21875-1.070313 7.078125-2.929688 1.859375-1.867188 2.921875-4.4375 2.921875-7.066406 0-2.632813-1.0625-5.210938-2.921875-7.070313-1.871094-1.871093-4.449219-2.929687-7.078125-2.929687zm0 0"/><path d="m147.1875 436.472656c-1.859375 1.859375-2.929688 4.441406-2.929688 7.070313 0 2.628906 1.070313 5.210937 2.929688 7.070312s4.441406 2.929688 7.070312 2.929688c2.628907 0 5.210938-1.070313 7.070313-2.929688s2.929687-4.441406 2.929687-7.070312c0-2.628907-1.070312-5.210938-2.929687-7.070313s-4.441406-2.929687-7.070313-2.929687c-2.640624 0-5.210937 1.070312-7.070312 2.929687zm0 0"/><path d="m34.324219 282.34375c2.632812 0 5.210937-1.070312 7.070312-2.929688 1.859375-1.871093 2.929688-4.441406 2.929688-7.070312s-1.070313-5.210938-2.929688-7.078125c-1.859375-1.859375-4.4375-2.929687-7.070312-2.929687-2.628907 0-5.210938 1.066406-7.066407 2.929687-1.863281 1.867187-2.933593 4.4375-2.933593 7.078125 0 2.628906 1.070312 5.210938 2.933593 7.070312 1.855469 1.859376 4.4375 2.929688 7.066407 2.929688zm0 0"/></svg>