<svg id="Capa_1" enable-background="new 0 0 512.202 512.202" height="512" viewBox="0 0 512.202 512.202" width="512" xmlns="http://www.w3.org/2000/svg"><g id="XMLID_1455_"><g id="XMLID_224_"><path id="XMLID_406_" d="m509.273 83.242-7.885-7.885 1.203-1.203c1.875-1.875 2.929-4.419 2.929-7.071s-1.054-5.196-2.929-7.071l-50.315-50.314c-3.906-3.905-10.236-3.905-14.143 0l-1.202 1.202-7.885-7.885c-3.905-3.905-10.235-3.905-14.143 0-3.905 3.905-3.905 10.237 0 14.142l7.885 7.885-15.973 15.973-7.885-7.885c-3.906-3.905-10.236-3.905-14.143 0-3.905 3.905-3.905 10.237 0 14.142l7.885 7.885-15.97 15.973-7.885-7.885c-3.905-3.905-10.235-3.905-14.143 0-3.905 3.905-3.905 10.237 0 14.142l11.536 11.537v5.076l-105.546 105.547-3.783-3.783c-16.264-16.263-39.441-23.282-61.99-18.777-22.554 4.505-41.424 20.303-50.188 41.562-8.833 21.424-28.23 37.33-51.601 41.855-22.802 4.415-43.37 15.264-59.48 31.374-23.103 23.102-34.999 54.577-33.495 88.625 1.489 33.715 15.977 65.95 40.793 90.767 26.578 26.577 61.646 40.948 96.377 40.947 14.038 0 28.023-2.349 41.366-7.187 5.192-1.883 7.875-7.618 5.992-12.81-1.884-5.191-7.616-7.876-12.811-5.992-39.092 14.177-84.931 2.753-116.782-29.1-21.273-21.272-33.688-48.798-34.955-77.506-1.253-28.375 8.568-54.514 27.656-73.601 13.277-13.278 30.271-22.228 49.14-25.881 29.995-5.808 54.883-26.203 66.287-53.862 6.306-15.293 19.396-26.336 35.617-29.577 16.226-3.242 32.234 1.61 43.931 13.306l3.783 3.783-34.456 34.456c-13.615.098-26.402 5.439-36.041 15.077-9.638 9.638-14.979 22.425-15.077 36.041l-47.649 47.65-5.508-5.508c-3.906-3.905-10.236-3.905-14.143 0-3.905 3.905-3.905 10.237 0 14.143l62.893 62.893c1.953 1.953 4.512 2.929 7.071 2.929s5.118-.976 7.071-2.929c3.905-3.905 3.905-10.237 0-14.143l-5.507-5.507 47.65-47.649c13.615-.098 26.402-5.439 36.04-15.077s14.979-22.425 15.077-36.041l34.456-34.456 3.783 3.783c11.697 11.697 16.547 27.709 13.307 43.93-3.24 16.222-14.282 29.312-29.575 35.617-27.662 11.405-48.055 36.292-53.864 66.288-.979 5.058-2.353 10.042-4.083 14.815-1.882 5.192.801 10.927 5.993 12.809 5.199 1.884 10.928-.802 12.81-5.994 2.085-5.752 3.739-11.75 4.915-17.829 4.526-23.371 20.429-42.766 41.852-51.599 21.263-8.767 37.059-27.635 41.564-50.189 4.506-22.554-2.514-45.728-18.776-61.99l-3.783-3.783 105.347-105.347h5.477l11.536 11.536c1.953 1.953 4.512 2.929 7.071 2.929s5.118-.977 7.071-2.929c3.905-3.905 3.905-10.237 0-14.142l-7.885-7.885 15.973-15.973 7.885 7.885c1.953 1.953 4.512 2.929 7.071 2.929s5.118-.977 7.071-2.929c3.905-3.905 3.905-10.237 0-14.142l-7.885-7.885 15.972-15.972 7.885 7.885c1.953 1.953 4.512 2.929 7.071 2.929s5.118-.977 7.071-2.929c3.907-3.908 3.907-10.239.001-14.145zm-27.896-16.159-58.994 58.994h-8.775l-27.396-27.396v-8.776l58.994-58.994zm-145.242 132.464-23.593-23.593 23.594-23.594 23.593 23.593zm-37.736-9.45 23.593 23.593-23.593 23.593-23.593-23.593zm-49.532 73.125c-4.077-4.077-8.722-7.375-13.75-9.844l25.546-25.546 23.593 23.593-25.546 25.546c-2.469-5.027-5.766-9.672-9.843-13.749zm-121.425 97.832 38.74-38.74c2.469 5.028 5.767 9.673 9.844 13.75s8.722 7.375 13.75 9.844l-38.74 38.74zm107.283-39.133c-5.95 5.951-13.862 9.229-22.278 9.229s-16.328-3.277-22.278-9.229c-5.951-5.951-9.229-13.863-9.229-22.279s3.277-16.328 9.229-22.279c5.95-5.951 13.862-9.228 22.278-9.228s16.328 3.277 22.278 9.229c5.951 5.951 9.229 13.863 9.229 22.278-.001 8.416-3.278 16.328-9.229 22.279zm139.145-160.11-23.593-23.593 23.593-23.593 23.593 23.593z"/><path id="XMLID_479_" d="m213.242 461.396c-2.64 0-5.21 1.07-7.08 2.93-1.859 1.86-2.92 4.44-2.92 7.07s1.061 5.21 2.92 7.07c1.87 1.86 4.45 2.93 7.08 2.93s5.21-1.07 7.07-2.93c1.859-1.86 2.93-4.44 2.93-7.07s-1.07-5.21-2.93-7.07-4.44-2.93-7.07-2.93z"/></g></g></svg>