<?xml version="1.0" encoding="UTF-8" standalone="no"?>
<svg
   xmlns:dc="http://purl.org/dc/elements/1.1/"
   xmlns:cc="http://creativecommons.org/ns#"
   xmlns:rdf="http://www.w3.org/1999/02/22-rdf-syntax-ns#"
   xmlns:svg="http://www.w3.org/2000/svg"
   xmlns="http://www.w3.org/2000/svg"
   xmlns:sodipodi="http://sodipodi.sourceforge.net/DTD/sodipodi-0.dtd"
   xmlns:inkscape="http://www.inkscape.org/namespaces/inkscape"
   height="512pt"
   viewBox="0 0 512 512"
   width="512pt"
   version="1.1"
   id="svg1303"
   sodipodi:docname="danceability-max.svg"
   inkscape:version="1.0.1 (3bc2e813f5, 2020-09-07)">
  <metadata
     id="metadata1309">
    <rdf:RDF>
      <cc:Work
         rdf:about="">
        <dc:format>image/svg+xml</dc:format>
        <dc:type
           rdf:resource="http://purl.org/dc/dcmitype/StillImage" />
      </cc:Work>
    </rdf:RDF>
  </metadata>
  <defs
     id="defs1307" />
  <sodipodi:namedview
     pagecolor="#ffffff"
     bordercolor="#666666"
     borderopacity="1"
     objecttolerance="10"
     gridtolerance="10"
     guidetolerance="10"
     inkscape:pageopacity="0"
     inkscape:pageshadow="2"
     inkscape:window-width="1920"
     inkscape:window-height="1017"
     id="namedview1305"
     showgrid="false"
     inkscape:zoom="1.3344727"
     inkscape:cx="342.83205"
     inkscape:cy="341.33333"
     inkscape:window-x="0"
     inkscape:window-y="27"
     inkscape:window-maximized="1"
     inkscape:current-layer="svg1303" />
  <path
     d="m 435.35156,320.17967 c -9.55859,-4.52735 -20.30859,-5.0625 -30.26562,-1.50782 -6.26172,2.23438 -11.73438,5.92188 -16.0625,10.72266 -3.4375,-3.79687 -7.62891,-6.94141 -12.4336,-9.21484 -9.55859,-4.52735 -20.30469,-5.0625 -30.26562,-1.50782 -9.91797,3.54297 -17.8711,10.71875 -22.40625,20.21485 l -26.41406,52.26171 c -0.94922,-2.94922 -1.46485,-6.08594 -1.46485,-9.34766 v -60.5664 c 0.11328,-0.59765 0.17578,-1.21484 0.17578,-1.84375 V 235.65232 C 354.12891,230.5742 399.70703,181.80858 399.70703,122.59765 V 54.749997 c 0,-18.953123 -15.41797,-34.371091 -34.37109,-34.371091 -18.95313,0 -34.37109,15.417968 -34.37109,34.371091 v 67.847653 c 0,24.67187 -20.07422,44.74609 -44.75001,44.74609 h -12.98437 c 10.59765,-11.34766 17.10156,-26.5625 17.10156,-43.28125 v -6.58203 c 0,-35.003903 -28.47656,-63.480463 -63.48047,-63.480463 -35,0 -63.47656,28.47656 -63.47656,63.480463 v 6.58203 c 0,16.71875 6.5039,31.93359 17.10156,43.28125 h -12.98437 c -24.67579,0 -44.75,-20.07422 -44.75,-44.74609 V 54.749997 c 0,-18.953123 -15.41797,-34.371091 -34.371096,-34.371091 C 69.417969,20.378906 54,35.796874 54,54.749997 v 67.847653 c 0,59.41015 45.886719,108.30077 104.07813,113.10155 v 83.6914 c 0,0.10157 0.0117,0.20313 0.0156,0.3086 v 62.10155 c 0,2.77344 0.10547,5.57813 0.3125,8.33594 0.39844,5.25 4.78125,9.24609 9.96094,9.24609 0.2539,0 0.50781,-0.008 0.76562,-0.0273 5.50781,-0.41797 9.63281,-5.21875 9.21875,-10.72656 -0.17187,-2.25782 -0.25781,-4.55469 -0.25781,-6.82813 v -52.41015 h 97.94531 v 52.41015 c 0,27.92188 22.71484,50.63672 50.63672,50.63672 19.41797,0 37.34375,-11.31641 45.70313,-28.83594 l 28.20703,-55.80078 c 0.0351,-0.0742 0.0742,-0.15234 0.10937,-0.23046 2.24219,-4.72656 6.19141,-8.30469 11.11719,-10.0625 4.92969,-1.75781 10.24609,-1.49219 14.97656,0.7461 9.73047,4.60937 13.91406,16.24999 9.3711,25.99217 l -28.19531,55.77735 c -0.0391,0.0742 -0.0742,0.15234 -0.11329,0.23047 -14.78125,31.20312 -46.64453,51.36718 -81.17187,51.36718 -49.52735,0 -89.82032,-40.29297 -89.82032,-89.82031 v -5.19922 c 0,-5.52344 -4.47656,-10 -10,-10 -5.52343,0 -10,4.47656 -10,10 v 5.19922 c 0,37.00391 18.39844,69.79297 46.52735,89.69922 -18.75,-0.92188 -36.36719,-7.53906 -51.19531,-19.30859 -4.32813,-3.4336 -10.61719,-2.71094 -14.05078,1.61718 -3.42969,4.32813 -2.70704,10.61719 1.62109,14.05078 19.58984,15.54687 43.16015,23.76171 68.16015,23.76171 9.85157,0 19.67579,-1.36328 29.24219,-4.03125 9.39453,2.625 19.29297,4.03125 29.51563,4.03125 42.17578,0 81.09375,-24.60155 99.1914,-62.68749 l 28.20313,-55.79297 c 0.0391,-0.0781 0.0742,-0.15234 0.11328,-0.23046 9.33984,-19.73047 0.89063,-43.38671 -18.83594,-52.73046 z M 183.375,124.06249 v -6.58203 c 0,-23.97656 19.5039,-43.480464 43.48047,-43.480464 23.97265,0 43.47656,19.503904 43.47656,43.480464 v 6.58203 c 0,22.59375 -17.32422,41.21094 -39.39063,43.28125 h -8.17578 C 200.69922,165.27733 183.375,146.65624 183.375,124.06249 Z M 74,122.59765 V 54.749997 c 0,-7.92578 6.445312,-14.371093 14.371094,-14.371093 7.925781,0 14.371096,6.445313 14.371096,14.371093 v 67.847653 c 0,35.70312 29.04687,64.74609 64.75,64.74609 h 54.58594 c 1.57812,0.12109 3.16797,0.19922 4.77734,0.19922 1.60547,0 3.19531,-0.0781 4.77344,-0.19922 h 54.58593 c 35.70313,0 64.75001,-29.04297 64.75001,-64.74609 V 54.749997 c 0,-7.92578 6.4453,-14.371093 14.37109,-14.371093 7.92578,0 14.37109,6.445313 14.37109,14.371093 v 67.847653 c 0,51.55078 -41.9375,93.49218 -93.48828,93.49218 -5.52344,0 -10,4.47656 -10,9.99999 v 83.30078 h -98.14062 v -83.30078 c 0,-5.52343 -4.47657,-9.99999 -10,-9.99999 h -0.58594 C 115.9414,216.08983 74,174.14843 74,122.59765 Z m 280.47265,272.08982 c -0.039,0.0742 -0.0742,0.15234 -0.11328,0.22656 -5.03906,10.64453 -15.91015,17.52344 -27.68359,17.52344 -5.67969,0 -10.99609,-1.55859 -15.5625,-4.26172 0.91406,-1.48437 1.75781,-3.01562 2.50391,-4.57422 l 28.20312,-55.80078 c 0.0391,-0.0742 0.0742,-0.15234 0.11328,-0.23046 2.23828,-4.73047 6.1875,-8.30469 11.11719,-10.0625 4.92578,-1.76172 10.24609,-1.49609 14.97656,0.7461 4.5,2.13281 7.92969,5.79687 9.75391,10.31639 z m 0,0"
     id="path1283"
     style="stroke-width:1;fill:#9319b6;fill-opacity:1" />
  <path
     d="m188.703125 424.117188c-2.644531-4.847657-8.71875-6.632813-13.570313-3.992188-4.847656 2.644531-6.636718 8.71875-3.992187 13.5625 1.796875 3.386719 5.257813 5.316406 8.839844 5.316406 1.582031 0 3.183593-.375 4.679687-1.167968 4.878906-2.585938 6.734375-8.644532 4.148438-13.519532zm0 0"
     id="path1285"
     style="fill:#9319b6;fill-opacity:1" />
  <path
     d="m50 412c-5.523438 0-10 4.476562-10 10v13.8125c0 5.523438 4.476562 10 10 10s10-4.476562 10-10v-13.8125c0-5.523438-4.476562-10-10-10zm0 0"
     id="path1287"
     style="fill:#9319b6;fill-opacity:1" />
  <path
     d="m50 478.1875c-5.523438 0-10 4.476562-10 10v13.8125c0 5.523438 4.476562 10 10 10s10-4.476562 10-10v-13.8125c0-5.523438-4.476562-10-10-10zm0 0"
     id="path1289"
     style="fill:#9319b6;fill-opacity:1" />
  <path
     d="m90 452h-13.8125c-5.523438 0-10 4.476562-10 10s4.476562 10 10 10h13.8125c5.523438 0 10-4.476562 10-10s-4.476562-10-10-10zm0 0"
     id="path1291"
     style="fill:#9319b6;fill-opacity:1" />
  <path
     d="m23.8125 452h-13.8125c-5.523438 0-10 4.476562-10 10s4.476562 10 10 10h13.8125c5.523438 0 10-4.476562 10-10s-4.476562-10-10-10zm0 0"
     id="path1293"
     style="fill:#9319b6;fill-opacity:1" />
  <path
     d="m462 0c-5.523438 0-10 4.476562-10 10v13.8125c0 5.523438 4.476562 10 10 10s10-4.476562 10-10v-13.8125c0-5.523438-4.476562-10-10-10zm0 0"
     id="path1295"
     style="fill:#9319b6;fill-opacity:1" />
  <path
     d="m462 66.1875c-5.523438 0-10 4.476562-10 10v13.8125c0 5.523438 4.476562 10 10 10s10-4.476562 10-10v-13.8125c0-5.523438-4.476562-10-10-10zm0 0"
     id="path1297"
     style="fill:#9319b6;fill-opacity:1" />
  <path
     d="m502 40h-13.8125c-5.523438 0-10 4.476562-10 10s4.476562 10 10 10h13.8125c5.523438 0 10-4.476562 10-10s-4.476562-10-10-10zm0 0"
     id="path1299"
     style="fill:#9319b6;fill-opacity:1" />
  <path
     d="m422 60h13.8125c5.523438 0 10-4.476562 10-10s-4.476562-10-10-10h-13.8125c-5.523438 0-10 4.476562-10 10s4.476562 10 10 10zm0 0"
     id="path1301"
     style="fill:#9319b6;fill-opacity:1" />
</svg>
