<?xml version="1.0" encoding="UTF-8" standalone="no"?>
<svg
   xmlns:dc="http://purl.org/dc/elements/1.1/"
   xmlns:cc="http://creativecommons.org/ns#"
   xmlns:rdf="http://www.w3.org/1999/02/22-rdf-syntax-ns#"
   xmlns:svg="http://www.w3.org/2000/svg"
   xmlns="http://www.w3.org/2000/svg"
   xmlns:sodipodi="http://sodipodi.sourceforge.net/DTD/sodipodi-0.dtd"
   xmlns:inkscape="http://www.inkscape.org/namespaces/inkscape"
   height="511pt"
   viewBox="-50 1 511 511.999"
   width="511pt"
   version="1.1"
   id="svg1084"
   sodipodi:docname="energy-max.svg"
   inkscape:version="1.0.1 (3bc2e813f5, 2020-09-07)">
  <metadata
     id="metadata1090">
    <rdf:RDF>
      <cc:Work
         rdf:about="">
        <dc:format>image/svg+xml</dc:format>
        <dc:type
           rdf:resource="http://purl.org/dc/dcmitype/StillImage" />
      </cc:Work>
    </rdf:RDF>
  </metadata>
  <defs
     id="defs1088" />
  <sodipodi:namedview
     pagecolor="#ffffff"
     bordercolor="#666666"
     borderopacity="1"
     objecttolerance="10"
     gridtolerance="10"
     guidetolerance="10"
     inkscape:pageopacity="0"
     inkscape:pageshadow="2"
     inkscape:window-width="1920"
     inkscape:window-height="1017"
     id="namedview1086"
     showgrid="false"
     inkscape:zoom="1.3370841"
     inkscape:cx="342.16246"
     inkscape:cy="340.66667"
     inkscape:window-x="0"
     inkscape:window-y="27"
     inkscape:window-maximized="1"
     inkscape:current-layer="svg1084" />
  <path
     d="m148.777344 454.441406h-.367188c-5.5625 0-10.070312 4.507813-10.070312 10.070313s4.507812 10.070312 10.070312 10.070312h.367188c5.5625 0 10.070312-4.507812 10.070312-10.070312s-4.507812-10.070313-10.070312-10.070313zm0 0"
     id="path1074"
     style="fill:#9319b6;fill-opacity:1" />
  <path
     d="m206.386719 454.441406h-.371094c-5.558594 0-10.070313 4.507813-10.070313 10.070313s4.511719 10.070312 10.070313 10.070312h.371094c5.558593 0 10.070312-4.507812 10.070312-10.070312s-4.511719-10.070313-10.070312-10.070313zm0 0"
     id="path1076"
     style="fill:#9319b6;fill-opacity:1" />
  <path
     d="m263.964844 454.070312h-.371094c-5.558594 0-10.070312 4.507813-10.070312 10.070313s4.511718 10.074219 10.070312 10.074219h.371094c5.558594 0 10.070312-4.511719 10.070312-10.074219s-4.507812-10.070313-10.070312-10.070313zm0 0"
     id="path1078"
     style="fill:#9319b6;fill-opacity:1" />
  <path
     d="m404.839844 455.035156-65.175782-23.445312c-3.09375-8.488282-11.242187-14.566406-20.789062-14.566406h-1.351562v-20.34375c0-7.695313.652343-12.027344 15.382812-26.175782 18.140625-17.390625 26.089844-29.308594 26.089844-70.417968 0-16.015626-.003906-54.183594-18.625-78.191407v-176.023437c0-25.292969-20.566406-45.871094-45.847656-45.871094s-45.847657 20.578125-45.847657 45.871094v80.945312c-7.320312-4.675781-16.074219-7.207031-25.304687-7.207031-13.707032 0-27.511719 5.671875-36.425782 16.710937-8.847656-10.335937-22.230468-15.65625-35.53125-15.65625-9.007812 0-18.054687 2.445313-25.707031 7.230469v-21.285156c0-15.101563-4.128906-27.707031-11.941406-36.449219-7.242187-8.101562-17.300781-12.5625-28.316406-12.5625-20.671875 0-42.054688 16-42.054688 42.769532v137.25c0 5.5625 4.507813 10.070312 10.070313 10.070312s10.070312-4.507812 10.070312-10.070312v-137.25c0-14.164063 11.140625-22.628907 21.914063-22.628907 3.683593 0 8.980469 1.015625 13.296875 5.847657 4.460937 4.988281 6.820312 12.949218 6.820312 23.023437v134.554687c0 25.292969 20.566406 45.871094 45.847656 45.871094 14.269532 0 27.035157-6.554687 35.449219-16.816406 8.144531 9.730469 21.152344 16.621094 38.628907 16.621094h26.960937c14.878906 0 14.878906 9.859375 14.878906 14.070312v16.054688c0 5.5625 4.507813 10.070312 10.070313 10.070312 5.558594 0 10.066406-4.507812 10.066406-10.070312v-16.054688c0-20.785156-13.746094-34.214844-35.015625-34.214844h-26.960937c-18.625 0-27.582032-11.03125-28.394532-21.839843.101563-1.21875.164063-2.449219.164063-3.691407v-.855468c.636719-4.53125 2.71875-8.652344 6.066406-11.8125 5.003906-4.722656 12.597656-7.21875 21.964844-7.21875h72.910156c28.113281 1.707031 40.65625 26.027344 40.65625 78.808594 0 35.398437-5.742187 42.316406-19.898437 55.886718-16.539063 15.886719-21.578126 25.394532-21.578126 40.707032v20.34375h-190.792968c-3.03125-5.671876-6.6875-11.15625-10.507813-16.871094-10.894531-16.308594-23.246093-34.796875-29.15625-68.152344-.972656-5.476562-6.199219-9.125-11.675781-8.15625s-9.128906 6.195312-8.15625 11.671875c6.648438 37.515625 20.839844 58.757813 32.238281 75.824219 1.753907 2.625 3.417969 5.117187 4.957031 7.527344-5.523437 2.417968-9.875 7.023437-11.953124 12.722656l-65.175782 23.441406c-3.996094 1.441406-6.660156 5.230469-6.660156 9.480469 0 4.246093 2.664062 8.039062 6.660156 9.476562l65.175782 23.441407c3.09375 8.492187 11.246093 14.570312 20.789062 14.570312h225.75c9.542969 0 17.695312-6.078125 20.789062-14.570312l65.175782-23.441407c3.996094-1.4375 6.660156-5.230469 6.660156-9.476562 0-4.25-2.664062-8.039063-6.660156-9.476563zm-253.425782-188.140625c-14.175781 0-25.707031-11.542969-25.707031-25.730469v-75.148437c0-17.414063 12.910157-25.207031 25.707031-25.207031 12.796876 0 25.707032 7.792968 25.707032 25.207031v72.875c-.148438 1.429687-.226563 2.882813-.226563 4.347656 0 .363281.015625.726563.027344 1.089844-1.566406 12.699219-12.402344 22.566406-25.507813 22.566406zm45.847657-58.828125v-42.050781c0-18.144531 13.113281-26.261719 26.109375-26.261719 6.800781 0 13.039062 2.269532 17.566406 6.390625 5.136719 4.675781 7.738281 11.363281 7.738281 19.871094v35.121094h-23.382812c-10.722657 0-20.238281 2.378906-28.03125 6.929687zm101.230469-6.929687h-29.675782v-155.265625c0-14.1875 11.53125-25.730469 25.710938-25.730469 14.171875 0 25.707031 11.542969 25.707031 25.730469v160.117187c-6.066406-2.671875-13.070313-4.386719-21.183594-4.839843-.183593-.007813-.371093-.011719-.558593-.011719zm-227.484376 252.335937v22.074219l-30.679687-11.035156zm249.847657 36.398438c0 1.078125-.90625 1.988281-1.976563 1.988281h-225.75c-1.074218 0-1.980468-.910156-1.980468-1.988281v-50.722656c0-1.074219.90625-1.984376 1.980468-1.984376h7.136719.039063.058593 218.511719c1.074219 0 1.980469.90625 1.980469 1.984376zm20.140625-14.324219v-22.074219l30.683594 11.039063zm0 0"
     id="path1080"
     style="fill:#9319b6;fill-opacity:1" />
  <path
     d="m53.464844 294.609375c5.5625 0 10.070312-4.507813 10.070312-10.070313v-.171874c0-5.558594-4.507812-10.070313-10.070312-10.070313-5.558594 0-10.070313 4.511719-10.070313 10.070313v.171874c0 5.5625 4.511719 10.070313 10.070313 10.070313zm0 0"
     id="path1082"
     style="fill:#9319b6;fill-opacity:1" />
</svg>
