<?xml version="1.0" encoding="UTF-8" standalone="no"?>
<svg
   xmlns:dc="http://purl.org/dc/elements/1.1/"
   xmlns:cc="http://creativecommons.org/ns#"
   xmlns:rdf="http://www.w3.org/1999/02/22-rdf-syntax-ns#"
   xmlns:svg="http://www.w3.org/2000/svg"
   xmlns="http://www.w3.org/2000/svg"
   xmlns:sodipodi="http://sodipodi.sourceforge.net/DTD/sodipodi-0.dtd"
   xmlns:inkscape="http://www.inkscape.org/namespaces/inkscape"
   id="Capa_1"
   enable-background="new 0 0 512 512"
   height="512"
   viewBox="0 0 512 512"
   width="512"
   version="1.1"
   sodipodi:docname="energy-min.svg"
   inkscape:version="1.0.1 (3bc2e813f5, 2020-09-07)">
  <metadata
     id="metadata1101">
    <rdf:RDF>
      <cc:Work
         rdf:about="">
        <dc:format>image/svg+xml</dc:format>
        <dc:type
           rdf:resource="http://purl.org/dc/dcmitype/StillImage" />
      </cc:Work>
    </rdf:RDF>
  </metadata>
  <defs
     id="defs1099" />
  <sodipodi:namedview
     pagecolor="#ffffff"
     bordercolor="#666666"
     borderopacity="1"
     objecttolerance="10"
     gridtolerance="10"
     guidetolerance="10"
     inkscape:pageopacity="0"
     inkscape:pageshadow="2"
     inkscape:window-width="1920"
     inkscape:window-height="1017"
     id="namedview1097"
     showgrid="false"
     inkscape:zoom="1.7792969"
     inkscape:cx="257.12404"
     inkscape:cy="256"
     inkscape:window-x="0"
     inkscape:window-y="27"
     inkscape:window-maximized="1"
     inkscape:current-layer="Capa_1" />
  <g
     id="XMLID_1961_"
     style="fill:#9319b6;fill-opacity:1">
    <g
       id="XMLID_656_"
       style="fill:#9319b6;fill-opacity:1">
      <path
         id="XMLID_659_"
         d="m413.209 54c-11.882 0-23.378 3.497-33.247 10.114-28.949 19.407-67.89 12.682-88.65-15.313-22.66-30.558-58.901-48.801-96.944-48.801h-145.279c-5.523 0-10 4.477-10 10v54c0 4.837 3.436 8.873 8 9.799v42.201c0 4.099 2.469 7.619 6 9.162v322.838h-4c-5.523 0-10 4.478-10 10v44c0 5.522 4.477 10 10 10h144c5.523 0 10-4.478 10-10v-40.347l95.409-113.152c3.56-4.223 3.023-10.531-1.199-14.092s-10.531-3.024-14.091 1.199l-94.767 112.392h-59.049l279.164-313.348c2.985-3.352 3.372-8.281.947-12.057-2.426-3.777-7.07-5.476-11.359-4.152l-16.974 5.231c-41.851 12.897-87.09 1.674-118.058-29.295-26.04-26.038-60.661-40.379-97.486-40.379h-34.536v-34h63.279c31.739 0 61.974 15.221 80.88 40.715 16.684 22.497 42.344 34.484 68.435 34.483 16.338-.002 32.849-4.704 47.418-14.472 6.561-4.4 14.206-6.726 22.107-6.726 21.892 0 39.702 17.866 39.702 39.826v.927c0 12.637-4.486 24.916-12.633 34.577l-99.057 117.479c-3.56 4.223-3.023 10.531 1.199 14.091 1.876 1.583 4.165 2.355 6.441 2.355 2.845 0 5.672-1.208 7.65-3.554l99.057-117.479c11.184-13.263 17.343-30.121 17.343-47.47v-.927c0-32.987-26.783-59.825-59.702-59.825zm-346.12 20h36v32h-36zm50 51.162c3.531-1.544 6-5.063 6-9.162v-42h22v326.314l-28 31.428zm-58-105.162h52v34h-52zm14 106h24v322h-24zm110 366h-124v-24h124zm58-199.441-28 31.428v-240.074c10.03 4.414 19.445 10.254 28 17.409zm105.239-143.62c8.218 0 16.487-.737 24.704-2.234l-61.943 69.528v-72.442c12.075 3.4 24.6 5.149 37.239 5.148zm-57.239-12.5v102.242l-28 31.428v-150.813c8.705 6.879 18.111 12.61 28 17.143zm-96-59.232v269.229l-28 31.428v-303.864h.536c9.371 0 18.572 1.094 27.464 3.207z"
         style="fill:#9319b6;fill-opacity:1" />
      <path
         id="XMLID_690_"
         d="m319.86 297.649c-2.63 0-5.21 1.07-7.07 2.931-1.86 1.859-2.93 4.439-2.93 7.069 0 2.631 1.07 5.21 2.93 7.07s4.44 2.93 7.07 2.93c2.64 0 5.21-1.069 7.07-2.93 1.86-1.86 2.93-4.439 2.93-7.07 0-2.63-1.07-5.21-2.93-7.069-1.86-1.86-4.44-2.931-7.07-2.931z"
         style="fill:#9319b6;fill-opacity:1" />
    </g>
  </g>
</svg>
