<?xml version="1.0" encoding="UTF-8" standalone="no"?>
<svg
   xmlns:dc="http://purl.org/dc/elements/1.1/"
   xmlns:cc="http://creativecommons.org/ns#"
   xmlns:rdf="http://www.w3.org/1999/02/22-rdf-syntax-ns#"
   xmlns:svg="http://www.w3.org/2000/svg"
   xmlns="http://www.w3.org/2000/svg"
   xmlns:sodipodi="http://sodipodi.sourceforge.net/DTD/sodipodi-0.dtd"
   xmlns:inkscape="http://www.inkscape.org/namespaces/inkscape"
   id="Layer_1"
   enable-background="new 0 0 512.002 512.002"
   height="512"
   viewBox="0 0 512.002 512.002"
   width="512"
   version="1.1"
   sodipodi:docname="instrumentalness-max.svg"
   inkscape:version="1.0.1 (3bc2e813f5, 2020-09-07)">
  <metadata
     id="metadata1213">
    <rdf:RDF>
      <cc:Work
         rdf:about="">
        <dc:format>image/svg+xml</dc:format>
        <dc:type
           rdf:resource="http://purl.org/dc/dcmitype/StillImage" />
      </cc:Work>
    </rdf:RDF>
  </metadata>
  <defs
     id="defs1211" />
  <sodipodi:namedview
     pagecolor="#ffffff"
     bordercolor="#666666"
     borderopacity="1"
     objecttolerance="10"
     gridtolerance="10"
     guidetolerance="10"
     inkscape:pageopacity="0"
     inkscape:pageshadow="2"
     inkscape:window-width="1920"
     inkscape:window-height="1017"
     id="namedview1209"
     showgrid="false"
     inkscape:zoom="1.7792969"
     inkscape:cx="257.12404"
     inkscape:cy="256"
     inkscape:window-x="0"
     inkscape:window-y="27"
     inkscape:window-maximized="1"
     inkscape:current-layer="Layer_1" />
  <g
     id="g1206"
     style="fill:#9319b6;fill-opacity:1">
    <g
       id="g1204"
       style="fill:#9319b6;fill-opacity:1">
      <path
         d="m402.74 151.689 100.5-100.5c5.65-5.65 8.763-13.185 8.763-21.214 0-8.028-3.112-15.562-8.763-21.213-5.652-5.65-13.185-8.762-21.214-8.762s-15.563 3.112-21.214 8.763l-118.595 118.596c-37.247-5.997-64.42 9.604-86.216 27.79-23.069-19.242-52.117-35.564-92.731-26.552-5.392 1.197-8.792 6.538-7.596 11.93 1.197 5.392 6.542 8.791 11.93 7.596 33.712-7.488 57.06 5.662 81.735 27.705 1.897 1.694 4.279 2.542 6.662 2.542s4.765-.848 6.662-2.542c19.256-17.203 37.67-28.976 60.857-29.772l-101.651 101.65c-4.231-2.332-8.143-5.077-11.665-8.224-2.129-1.901-4.976-2.8-7.805-2.477l-58.398 6.718c-5.487.631-9.423 5.591-8.792 11.077.631 5.487 5.605 9.429 11.077 8.792l54.113-6.225c2.2 1.753 4.496 3.396 6.88 4.928l-82.432 82.432c-53.274-20-88.019-52.751-103.4-97.482 26.262-24.744 49.301-44.322 70.303-59.753 4.45-3.27 5.408-9.528 2.138-13.979-3.27-4.45-9.529-5.407-13.979-2.138-22.896 16.821-48.018 38.309-76.8 65.691-2.73 2.598-3.769 6.509-2.686 10.118 8.872 29.578 25.08 55.045 48.175 75.693 16.716 14.946 37.142 27.435 60.844 37.254l-100.679 100.682c-5.651 5.65-8.763 13.184-8.763 21.214 0 8.028 3.112 15.562 8.763 21.213 5.651 5.65 13.185 8.763 21.214 8.763s15.563-3.112 21.213-8.763l124.2-124.202c25.459 4.621 52.55 6.963 80.611 6.963 39.306 0 97.122-4.687 149.348-27.016 55.335-23.658 91.076-61.272 106.231-111.8 1.083-3.609.045-7.521-2.686-10.118-41.38-39.365-76.255-67.422-106.154-85.378zm-365.693 337.409c-1.873 1.872-4.384 2.904-7.07 2.904s-5.198-1.032-7.071-2.905-2.906-4.384-2.906-7.07c0-2.688 1.032-5.198 2.905-7.071l452.05-452.05c1.873-1.873 4.384-2.905 7.071-2.905s5.197 1.032 7.07 2.905 2.905 4.384 2.905 7.07c0 2.688-1.032 5.198-2.905 7.071zm218.954-123.097c-21.818 0-42.99-1.477-63.182-4.392l88.944-88.944c10.979-3.198 21.183-8.412 29.837-15.298l54.116 6.226c5.485.633 10.446-3.306 11.077-8.792s-3.305-10.446-8.792-11.077l-51.386-5.911 71.516-71.516c28.426 16.344 62.053 42.921 102.423 80.949-36.828 107.03-175.75 118.755-234.553 118.755z"
         id="path1200"
         style="fill:#9319b6;fill-opacity:1" />
      <path
         d="m123.606 164.972c5.522 0 10-4.478 10-10s-4.478-10-10-10h-.006c-5.522 0-9.996 4.478-9.996 10s4.48 10 10.002 10z"
         id="path1202"
         style="fill:#9319b6;fill-opacity:1" />
    </g>
  </g>
</svg>
