<svg id="Capa_1" enable-background="new 0 0 512 512" height="512" viewBox="0 0 512 512" width="512" xmlns="http://www.w3.org/2000/svg"><g><circle cx="70" cy="301" r="10"/><circle cx="442" cy="301" r="10"/><path d="m502 251h-16v-170c0-8.859-3.862-16.83-9.989-22.326l-21.072-42.144c-1.699-3.41-5.129-5.53-8.939-5.53h-145.08c-5.521 0-10 4.49-10 10s4.479 10 10 10h138.899l10.292 20.584c-10.417 2.082-18.901 9.576-22.391 19.416h-40.305c-7.052-6.217-16.298-10-26.415-10s-19.363 3.783-26.415 10h-52.085c-.027 0-.053.004-.08.004-7.053-6.219-16.3-10.004-26.42-10.004-10.118 0-19.363 3.783-26.415 10h-52.169c-7.052-6.217-16.298-10-26.415-10s-19.363 3.783-26.415 10h-40.306c-3.49-9.84-11.974-17.334-22.392-19.416l10.292-20.584h138.74c5.51 0 10-4.49 10-10s-4.49-10-10-10h-144.92c-3.81 0-7.24 2.12-8.94 5.53l-21.085 42.155c-6.118 5.496-9.975 13.463-9.975 22.315v170h-16c-5.523 0-10 4.477-10 10v230c0 5.523 4.477 10 10 10h492c5.522 0 10-4.477 10-10v-230c0-5.523-4.478-10-10-10zm-10 160h-100v-140h100zm-173.816 0-29.684-35.621v-46.243c1.944 1.907 4.47 2.864 7 2.864 2.56 0 5.118-.976 7.071-2.929 3.905-3.905 3.905-10.237 0-14.143l-14.071-14.071v-21.857c0-5.523-4.478-10-10-10s-10 4.477-10 10v1.857l-14.932-14.932c1.878-3.917 2.932-8.3 2.932-12.926 0-16.542-13.458-30-30-30s-30 13.458-30 30 13.458 30 30 30c4.626 0 9.009-1.054 12.926-2.932l29.074 29.074v66.236l-29.684 35.623h-98.816v-150c0-5.523-4.477-10-10-10h-44v-120h38.585c7.052 6.217 16.298 10 26.415 10s19.363-3.783 26.415-10h52.169c7.052 6.217 16.298 10 26.415 10 10.12 0 19.367-3.785 26.42-10.004.027 0 .053.004.08.004h52.085c7.052 6.217 16.298 10 26.415 10s19.363-3.783 26.415-10h38.586v120h-44c-5.522 0-10 4.477-10 10v150zm-39.684-16.379 13.649 16.379h-27.299zm-52-131.621c-5.514 0-10-4.486-10-10s4.486-10 10-10 10 4.486 10 10-4.486 10-10 10zm-114.234-152h-26.266v-20h26.266c-.826 3.197-1.266 6.548-1.266 10s.44 6.803 1.266 10zm105 0h-27.532c.826-3.197 1.266-6.548 1.266-10s-.44-6.803-1.266-10h27.532c-.826 3.197-1.266 6.548-1.266 10s.44 6.803 1.266 10zm105 0h-27.532c.826-3.197 1.266-6.548 1.266-10s-.44-6.803-1.266-10h27.532c-.826 3.197-1.266 6.548-1.266 10s.44 6.803 1.266 10zm103.734 0h-26.266c.826-3.197 1.266-6.548 1.266-10s-.44-6.803-1.266-10h26.266zm20 140v-130h20v130zm10-180c5.514 0 10 4.486 10 10v20h-20v-20c0-5.514 4.486-10 10-10zm-75 30c0 11.028-8.972 20-20 20s-20-8.972-20-20 8.972-20 20-20 20 8.972 20 20zm-125-20c11.028 0 20 8.972 20 20s-8.972 20-20 20-20-8.972-20-20 8.972-20 20-20zm-85 20c0 11.028-8.972 20-20 20s-20-8.972-20-20 8.972-20 20-20 20 8.972 20 20zm-105-20v20h-20v-20c0-5.514 4.486-10 10-10s10 4.486 10 10zm-20 40h20v130h-20zm-26 150h100v140h-100zm0 160h146v50h-146zm166 50v-50h140v50zm306 0h-146v-50h146z"/><circle cx="255.92" cy="21" r="10"/><path d="m70 331c-16.542 0-30 13.458-30 30s13.458 30 30 30 30-13.458 30-30-13.458-30-30-30zm0 40c-5.514 0-10-4.486-10-10s4.486-10 10-10 10 4.486 10 10-4.486 10-10 10z"/><path d="m442 331c-16.542 0-30 13.458-30 30s13.458 30 30 30 30-13.458 30-30-13.458-30-30-30zm0 40c-5.514 0-10-4.486-10-10s4.486-10 10-10 10 4.486 10 10-4.486 10-10 10z"/></g></svg>