<svg height="512pt" viewBox="0 -44 512 512" width="512pt" xmlns="http://www.w3.org/2000/svg"><path d="m459.796875 127.988281c-11.253906-6.511719-21.414063 11.011719-10.144531 17.53125 25.96875 15.023438 42.097656 42.964844 42.097656 72.925781 0 29.582032-15.828125 57.347657-41.304688 72.460938-11.0625 6.5625-.828124 24.039062 10.332032 17.417969 31.59375-18.742188 51.222656-53.183594 51.222656-89.878907 0-37.164062-20.003906-71.824218-52.203125-90.457031zm0 0"/><path d="m384.128906 1.574219c-2.925781-1.855469-6.601562-2.085938-9.734375-.609375l-219.703125 103.421875h-46.9375c-59.417968 0-107.753906 48.339843-107.753906 107.753906s48.335938 107.753906 107.753906 107.753906h46.941406l219.699219 103.421875c6.566407 3.089844 14.4375-1.902344 14.4375-9.160156v-404.03125c0-3.46875-1.773437-6.691406-4.703125-8.550781zm-15.546875 396.625-201.5-94.855469v-79.707031c0-13-20.25-13.019531-20.25 0v76.003906h-39.078125c-48.25 0-87.503906-39.25-87.503906-87.5s39.253906-87.503906 87.503906-87.503906h39.078125v16.984375c0 13 20.25 13.019531 20.25 0v-20.683594l201.5-94.855469zm0 0"/><path d="m156.957031 172.332031c-5.5 0-10.125 4.625-10.125 10.125-.003906 5.503907 4.621094 10.136719 10.125 10.136719 5.347657 0 9.867188-4.363281 10.105469-9.695312.25-5.660157-4.429688-10.566407-10.105469-10.566407zm0 0"/></svg>