<?xml version="1.0" encoding="UTF-8" standalone="no"?>
<svg
   xmlns:dc="http://purl.org/dc/elements/1.1/"
   xmlns:cc="http://creativecommons.org/ns#"
   xmlns:rdf="http://www.w3.org/1999/02/22-rdf-syntax-ns#"
   xmlns:svg="http://www.w3.org/2000/svg"
   xmlns="http://www.w3.org/2000/svg"
   xmlns:sodipodi="http://sodipodi.sourceforge.net/DTD/sodipodi-0.dtd"
   xmlns:inkscape="http://www.inkscape.org/namespaces/inkscape"
   height="512pt"
   viewBox="0 0 512 512.00142"
   width="512pt"
   version="1.1"
   id="svg1380"
   sodipodi:docname="loudness-max.svg"
   inkscape:version="1.0.1 (3bc2e813f5, 2020-09-07)">
  <metadata
     id="metadata1386">
    <rdf:RDF>
      <cc:Work
         rdf:about="">
        <dc:format>image/svg+xml</dc:format>
        <dc:type
           rdf:resource="http://purl.org/dc/dcmitype/StillImage" />
      </cc:Work>
    </rdf:RDF>
  </metadata>
  <defs
     id="defs1384" />
  <sodipodi:namedview
     pagecolor="#ffffff"
     bordercolor="#666666"
     borderopacity="1"
     objecttolerance="10"
     gridtolerance="10"
     guidetolerance="10"
     inkscape:pageopacity="0"
     inkscape:pageshadow="2"
     inkscape:window-width="1920"
     inkscape:window-height="1017"
     id="namedview1382"
     showgrid="false"
     inkscape:zoom="1.3344727"
     inkscape:cx="342.83205"
     inkscape:cy="341.33333"
     inkscape:window-x="0"
     inkscape:window-y="27"
     inkscape:window-maximized="1"
     inkscape:current-layer="svg1380" />
  <path
     d="m106.921875 283.015625c2.632813 0 5.210937-1.070313 7.070313-2.929687 1.859374-1.859376 2.929687-4.441407 2.929687-7.070313s-1.070313-5.210937-2.929687-7.070313c-1.859376-1.859374-4.4375-2.929687-7.070313-2.929687-2.640625 0-5.210937 1.070313-7.070313 2.929687-1.871093 1.859376-2.929687 4.429688-2.929687 7.070313 0 2.628906 1.058594 5.210937 2.929687 7.070313 1.859376 1.859374 4.429688 2.929687 7.070313 2.929687zm0 0"
     id="path1366"
     style="fill:#9319b6;fill-opacity:1" />
  <path
     d="m204.140625 109.472656c-2.199219-2.199218-5.296875-3.25-8.378906-2.84375-3.085938.40625-5.804688 2.226563-7.355469 4.921875l-70.152344 121.761719c-2.757812 4.785156-1.113281 10.898438 3.671875 13.65625 4.785157 2.757812 10.898438 1.109375 13.65625-3.671875l34.171875-59.3125 155.898438 155.898437-194.808594 112.238282-73.328125-73.328125 37.773437-65.558594c2.757813-4.785156 1.113282-10.902344-3.671874-13.660156-4.789063-2.757813-10.902344-1.109375-13.660157 3.675781l-40.9375 71.054688-16.65625 16.660156c-13.132812 13.128906-20.363281 30.585937-20.363281 49.15625 0 18.566406 7.230469 36.023437 20.363281 49.15625 13.550781 13.550781 31.351563 20.328125 49.152344 20.328125 17.804687 0 35.605469-6.777344 49.15625-20.328125l10.519531-10.519532 17.253906 17.25c10.660157 10.664063 24.667969 15.992188 38.671876 15.992188 14.007812 0 28.011718-5.328125 38.675781-15.992188 20.691406-20.691406 21.304687-53.976562 1.839843-75.417968l172.453126-99.355469c2.695312-1.554687 4.511718-4.273437 4.921874-7.355469.40625-3.085937-.644531-6.183594-2.84375-8.382812zm-169.636719 365.660156c-9.351562-9.355468-14.503906-21.789062-14.503906-35.015624 0-13.226563 5.152344-25.660157 14.503906-35.011719l10.519532-10.519531 70.027343 70.027343-10.519531 10.519531c-19.304688 19.308594-50.722656 19.308594-70.027344 0zm175.148438-42.332031c13.527344 13.527344 13.527344 35.535157 0 49.0625-13.527344 13.527344-35.539063 13.53125-49.066406 0l-15.097657-15.097656 62.257813-35.867187zm133.933594-103.25c-.074219-.078125-.136719-.15625-.210938-.234375l-163.277344-163.277344 19.125-33.199218 177.574219 177.574218zm0 0"
     id="path1368"
     style="fill:#9319b6;fill-opacity:1" />
  <path
     d="m253.398438 113.980469c.890624.246093 1.785156.363281 2.664062.363281 4.386719 0 8.414062-2.910156 9.632812-7.34375l12.285157-44.554688 8.527343 8.527344c2.464844 2.464844 6.035157 3.46875 9.425782 2.648438 3.386718-.820313 6.101562-3.34375 7.167968-6.664063l17.300782-53.898437c1.6875-5.257813-1.207032-10.890625-6.464844-12.578125s-10.890625 1.207031-12.578125 6.464843l-12.292969 38.300782-9.089844-9.089844c-2.515624-2.515625-6.179687-3.503906-9.625-2.597656-3.441406.910156-6.140624 3.578125-7.085937 7.011718l-16.851563 61.109376c-1.464843 5.328124 1.660157 10.835937 6.984376 12.300781zm0 0"
     id="path1370"
     style="fill:#9319b6;fill-opacity:1" />
  <path
     d="m510.707031 164.050781c-2.660156-4.839843-8.738281-6.605469-13.578125-3.949219l-71.125 39.066407c-2.757812 1.515625-4.640625 4.238281-5.082031 7.355469-.445313 3.113281.601563 6.257812 2.828125 8.480468l19.566406 19.566406-46.976562 11.742188c-5.359375 1.339844-8.617188 6.769531-7.277344 12.128906 1.136719 4.542969 5.214844 7.574219 9.695312 7.574219.800782 0 1.621094-.097656 2.433594-.300781l64.109375-16.027344c3.496094-.871094 6.25-3.558594 7.210938-7.03125.960937-3.472656-.019531-7.191406-2.566407-9.738281l-22.632812-22.632813 59.445312-32.652344c4.839844-2.660156 6.609376-8.738281 3.949219-13.582031zm0 0"
     id="path1372"
     style="fill:#9319b6;fill-opacity:1" />
  <path
     d="m460.871094 111.40625c1.859375 1.871094 4.4375 2.933594 7.070312 2.933594 2.628906 0 5.207032-1.0625 7.070313-2.933594 1.859375-1.859375 2.929687-4.429688 2.929687-7.066406 0-2.632813-1.070312-5.210938-2.929687-7.070313-1.863281-1.863281-4.441407-2.933593-7.070313-2.933593-2.632812 0-5.210937 1.070312-7.070312 2.933593-1.863282 1.859375-2.933594 4.4375-2.933594 7.070313 0 2.636718 1.070312 5.207031 2.933594 7.066406zm0 0"
     id="path1374"
     style="fill:#9319b6;fill-opacity:1" />
  <path
     d="m440.414062 117.929688c-2.445312-4.953126-8.441406-6.984376-13.394531-4.539063l-37.332031 18.425781c-2.890625 1.425782-4.914062 4.160156-5.4375 7.339844-.523438 3.183594.515625 6.421875 2.792969 8.699219l14.125 14.125-47.03125 23.167969c-4.953125 2.441406-6.992188 8.4375-4.550781 13.390624 1.742187 3.535157 5.289062 5.582032 8.980468 5.582032 1.480469 0 2.988282-.328125 4.410156-1.027344l59.554688-29.339844c2.894531-1.425781 4.921875-4.160156 5.449219-7.339844.523437-3.183593-.515625-6.421874-2.796875-8.703124l-14.132813-14.132813 24.820313-12.253906c4.953125-2.445313 6.984375-8.441407 4.542968-13.394531zm0 0"
     id="path1376"
     style="fill:#9319b6;fill-opacity:1" />
  <path
     d="m315.25 145.585938c1.609375.964843 3.382812 1.425781 5.136719 1.425781 3.394531 0 6.707031-1.730469 8.582031-4.855469l37.027344-61.695312 19.429687 19.480468c2.117188 2.121094 5.070313 3.183594 8.054688 2.894532 2.980469-.292969 5.675781-1.902344 7.339843-4.394532l55.429688-82.878906c3.070312-4.589844 1.839844-10.800781-2.75-13.871094-4.59375-3.066406-10.804688-1.835937-13.875 2.753906l-48.648438 72.738282-19.871093-19.929688c-2.175781-2.183594-5.242188-3.242187-8.296875-2.863281-3.058594.375-5.773438 2.136719-7.359375 4.78125l-43.628907 72.691406c-2.84375 4.738281-1.308593 10.878907 3.429688 13.722657zm0 0"
     id="path1378"
     style="fill:#9319b6;fill-opacity:1" />
</svg>
