<?xml version="1.0" encoding="UTF-8" standalone="no"?>
<svg
   xmlns:dc="http://purl.org/dc/elements/1.1/"
   xmlns:cc="http://creativecommons.org/ns#"
   xmlns:rdf="http://www.w3.org/1999/02/22-rdf-syntax-ns#"
   xmlns:svg="http://www.w3.org/2000/svg"
   xmlns="http://www.w3.org/2000/svg"
   xmlns:sodipodi="http://sodipodi.sourceforge.net/DTD/sodipodi-0.dtd"
   xmlns:inkscape="http://www.inkscape.org/namespaces/inkscape"
   height="512pt"
   viewBox="0 -44 512 512"
   width="512pt"
   version="1.1"
   id="svg1394"
   sodipodi:docname="loudness-min.svg"
   inkscape:version="1.0.1 (3bc2e813f5, 2020-09-07)">
  <metadata
     id="metadata1400">
    <rdf:RDF>
      <cc:Work
         rdf:about="">
        <dc:format>image/svg+xml</dc:format>
        <dc:type
           rdf:resource="http://purl.org/dc/dcmitype/StillImage" />
      </cc:Work>
    </rdf:RDF>
  </metadata>
  <defs
     id="defs1398" />
  <sodipodi:namedview
     pagecolor="#ffffff"
     bordercolor="#666666"
     borderopacity="1"
     objecttolerance="10"
     gridtolerance="10"
     guidetolerance="10"
     inkscape:pageopacity="0"
     inkscape:pageshadow="2"
     inkscape:window-width="1920"
     inkscape:window-height="1017"
     id="namedview1396"
     showgrid="false"
     inkscape:zoom="1.3344727"
     inkscape:cx="342.83205"
     inkscape:cy="341.33333"
     inkscape:window-x="0"
     inkscape:window-y="27"
     inkscape:window-maximized="1"
     inkscape:current-layer="svg1394" />
  <path
     d="m459.796875 127.988281c-11.253906-6.511719-21.414063 11.011719-10.144531 17.53125 25.96875 15.023438 42.097656 42.964844 42.097656 72.925781 0 29.582032-15.828125 57.347657-41.304688 72.460938-11.0625 6.5625-.828124 24.039062 10.332032 17.417969 31.59375-18.742188 51.222656-53.183594 51.222656-89.878907 0-37.164062-20.003906-71.824218-52.203125-90.457031zm0 0"
     id="path1388"
     style="fill:#9319b6;fill-opacity:1" />
  <path
     d="m 384.12891,1.574219 c -2.92578,-1.855469 -6.60157,-2.085938 -9.73438,-0.609375 L 154.6914,104.38672 H 107.75391 C 48.335938,104.38672 0,152.72656 0,212.14062 0,271.55469 48.335938,319.89453 107.75391,319.89453 h 46.9414 l 219.69922,103.42188 c 6.56641,3.08984 14.4375,-1.90235 14.4375,-9.16016 V 10.125 c 0,-3.46875 -1.77344,-6.691406 -4.70312,-8.550781 z m -15.54688,396.625001 -201.5,-94.85547 v -79.70703 c 0,-13 -20.25,-13.01953 -20.25,0 v 76.0039 h -39.07812 c -48.250004,0 -87.50391,-39.25 -87.50391,-87.5 0,-48.25 39.253906,-87.5039 87.50391,-87.5039 h 39.07812 v 16.98437 c 0,13 20.25,13.01953 20.25,0 V 120.9375 l 201.5,-94.855469 z m 0,0"
     id="path1390"
     style="stroke-width:1;fill:#9319b6;fill-opacity:1" />
  <path
     d="m156.957031 172.332031c-5.5 0-10.125 4.625-10.125 10.125-.003906 5.503907 4.621094 10.136719 10.125 10.136719 5.347657 0 9.867188-4.363281 10.105469-9.695312.25-5.660157-4.429688-10.566407-10.105469-10.566407zm0 0"
     id="path1392"
     style="fill:#9319b6;fill-opacity:1" />
</svg>
