<?xml version="1.0" encoding="UTF-8" standalone="no"?>
<svg
   xmlns:dc="http://purl.org/dc/elements/1.1/"
   xmlns:cc="http://creativecommons.org/ns#"
   xmlns:rdf="http://www.w3.org/1999/02/22-rdf-syntax-ns#"
   xmlns:svg="http://www.w3.org/2000/svg"
   xmlns="http://www.w3.org/2000/svg"
   xmlns:sodipodi="http://sodipodi.sourceforge.net/DTD/sodipodi-0.dtd"
   xmlns:inkscape="http://www.inkscape.org/namespaces/inkscape"
   viewBox="0 -27 512 511"
   version="1.1"
   id="svg1574"
   sodipodi:docname="popularity-min.svg"
   inkscape:version="1.0.1 (3bc2e813f5, 2020-09-07)">
  <metadata
     id="metadata1580">
    <rdf:RDF>
      <cc:Work
         rdf:about="">
        <dc:format>image/svg+xml</dc:format>
        <dc:type
           rdf:resource="http://purl.org/dc/dcmitype/StillImage" />
      </cc:Work>
    </rdf:RDF>
  </metadata>
  <defs
     id="defs1578" />
  <sodipodi:namedview
     pagecolor="#ffffff"
     bordercolor="#666666"
     borderopacity="1"
     objecttolerance="10"
     gridtolerance="10"
     guidetolerance="10"
     inkscape:pageopacity="0"
     inkscape:pageshadow="2"
     inkscape:window-width="1920"
     inkscape:window-height="1017"
     id="namedview1576"
     showgrid="false"
     inkscape:zoom="1.7827789"
     inkscape:cx="257.12184"
     inkscape:cy="255.5"
     inkscape:window-x="0"
     inkscape:window-y="27"
     inkscape:window-maximized="1"
     inkscape:current-layer="svg1574" />
  <path
     d="m67.5 230.46875c-4.144531 0-7.5 3.359375-7.5 7.5v30c0 4.144531 3.355469 7.5 7.5 7.5s7.5-3.355469 7.5-7.5v-30c0-4.140625-3.355469-7.5-7.5-7.5zm0 0"
     id="path1562"
     style="fill:#9319b6;fill-opacity:1;opacity:1" />
  <path
     d="m 295,117.96875 c 0,-4.14062 -3.35547,-7.5 -7.5,-7.5 -4.14453,0 -7.5,3.35938 -7.5,7.5 0,35.07422 -26.89063,63.97266 -61.13672,67.19141 -3.375,-11.3711 -13.91406,-19.69141 -26.36328,-19.69141 h -50 c -15.16406,0 -27.5,12.33984 -27.5,27.5 v 7.5 h -5.11719 C 99.847656,192.35547 87.742189,187.32812 75.000001,185.90234 v -7.93359 c 0,-4.14063 -3.355469,-7.5 -7.500001,-7.5 -4.144532,0 -7.5,3.35937 -7.5,7.5 v 7.92969 c -33.703125,3.74218 -60,32.38672 -60,67.07031 0,37.22266 30.281251,67.5 67.5,67.5 11.449219,0 22.609375,-2.91797 32.5,-8.36719 v 15.86719 c 0,4.14453 3.35547,7.5 7.5,7.5 H 130 v 99.09766 l -24.87109,8.28906 c -3.92969,1.30859 -6.054691,5.55859 -4.74219,9.48828 1.04687,3.14062 3.97265,5.12891 7.11328,5.12891 0.78516,0 1.58594,-0.125 2.3711,-0.38672 l 29.99999,-10 C 142.9375,446.0625 145,443.19922 145,439.96875 v -104.5 h 45 v 104.5 c 0,3.23047 2.06641,6.09766 5.12891,7.11719 l 29.99999,10 c 0.78516,0.26172 1.58594,0.38672 2.37501,0.38672 3.13672,0 6.0625,-1.98829 7.11328,-5.12891 1.30859,-3.93359 -0.81641,-8.17969 -4.7461,-9.48828 L 205,434.56641 v -99.09766 h 22.5 c 4.14453,0 7.5,-3.35547 7.5,-7.5 v -35.33203 c 0,-5.86328 -0.75,-11.60547 -2.21485,-17.16797 H 287.5 c 4.14453,0 7.5,-3.35547 7.5,-7.5 v -30 c 0,-4.14063 -3.35547,-7.5 -7.5,-7.5 H 220 v -30.35547 c 41.98828,-3.80469 75,-39.18359 75,-82.14453 z m -165,75 c 0,-6.89063 5.60547,-12.5 12.5,-12.5 h 50 c 6.89453,0 12.5,5.60937 12.5,12.5 v 37.5 H 159.24609 C 156.25391,215.79687 144.67188,204.21484 130,201.22656 Z m -22.85937,97.5 c -1.82813,0 -3.58985,0.66797 -4.96094,1.87891 -9.593751,8.46093 -21.910158,13.12109 -34.67969,13.12109 -28.94922,0 -52.5,-23.55078 -52.5,-52.5 0,-26.39844 19.59375,-48.30469 45,-51.95313 v 6.95313 c 0,4.14453 3.355468,7.5 7.5,7.5 4.144532,0 7.500001,-3.35547 7.500001,-7.5 v -6.95313 c 10.03125,1.45313 19.484375,5.78907 27.179689,12.57813 1.37109,1.21094 3.13281,1.875 4.96094,1.875 H 122.5 c 9.77735,0 18.11328,6.27344 21.21094,15 H 112.5 c -12.40625,0 -22.499999,10.09375 -22.499999,22.5 0,12.40625 10.093749,22.5 22.499999,22.5 h 31.21094 c -3.09766,8.73047 -11.43359,15 -21.21094,15 z M 120,252.96875 c 0,4.13672 -3.36328,7.5 -7.5,7.5 -4.13672,0 -7.5,-3.36328 -7.5,-7.5 0,-4.13281 3.36328,-7.5 7.5,-7.5 4.13672,0 7.5,3.36719 7.5,7.5 z m 100,67.5 H 115 v -15 h 7.5 c 18.10938,0 33.26172,-12.90234 36.74609,-30 h 57.86328 c 1.91016,5.49609 2.89063,11.25 2.89063,17.16797 z m 30,-75 h 30 v 15 h -30 z m -15,0 v 15 H 133.71094 c 0.83203,-2.34766 1.28906,-4.87109 1.28906,-7.5 0,-2.62891 -0.45703,-5.15234 -1.28906,-7.5 h 78.76953 z m 0,0"
     id="path1564"
     style="stroke-width:1;fill:#9319b6;fill-opacity:1;opacity:1" />
  <path
     d="m115 150.46875c8.535156 0 16.503906-3.652344 22.09375-9.742188 8.589844 6.125 19.082031 9.742188 30.40625 9.742188 11.328125 0 21.820312-3.617188 30.40625-9.742188 5.59375 6.089844 13.5625 9.742188 22.09375 9.742188 16.542969 0 30-13.457031 30-30 0-16.539062-13.457031-30-30-30h-.542969c-3.652343-25.40625-25.554687-45-51.957031-45s-48.304688 19.59375-51.953125 45h-.546875c-16.539062 0-30 13.460938-30 30 0 16.542969 13.460938 30 30 30zm104.457031-45h.542969c8.273438 0 15 6.730469 15 15 0 8.273438-6.726562 15-15 15-4.367188 0-8.4375-1.910156-11.242188-5.085938 5.566407-7.074218 9.359376-15.601562 10.699219-24.914062zm-15.433593-15.976562c-13.878907-3.222657-24.824219-14.164063-28.042969-28.042969 13.878906 3.222656 24.820312 14.164062 28.042969 28.042969zm-45-28.042969c-3.222657 13.878906-14.164063 24.820312-28.042969 28.042969 3.21875-13.878907 14.164062-24.820313 28.042969-28.042969zm8.476562 18.539062c7.859375 13.039063 21.230469 22.398438 36.859375 24.84375-3.234375 17.410157-18.523437 30.636719-36.859375 30.636719-18.332031 0-33.625-13.226562-36.859375-30.636719 15.628906-2.445312 29-11.800781 36.859375-24.84375zm-52.5 25.480469h.546875c1.335937 9.316406 5.132813 17.839844 10.699219 24.914062-2.804688 3.175782-6.878906 5.085938-11.246094 5.085938-8.269531 0-15-6.726562-15-15 0-8.269531 6.730469-15 15-15zm0 0"
     id="path1566"
     style="fill:#9319b6;fill-opacity:1;opacity:1" />
  <path
     d="m369.5 150.5c28.949219 0 52.5-23.550781 52.5-52.5v-45c0-7.269531-3.429688-13.863281-9-18.019531 1-6.875-1.238281-13.964844-6.375-19.101563-5.140625-5.140625-12.230469-7.375-19.105469-6.378906-4.15625-5.566406-10.75-9-18.019531-9s-13.863281 3.433594-18.019531 9c-6.875-1-13.964844 1.238281-19.101563 6.378906-5.140625 5.136719-7.378906 12.226563-6.378906 19.101563-5.566406 4.15625-9 10.75-9 18.019531v45c0 28.949219 23.550781 52.5 52.5 52.5zm-37.5-97.5c0-3.285156 2.105469-6.160156 5.234375-7.152344 2.113281-.667968 3.820313-2.234375 4.667969-4.28125.847656-2.042968.746094-4.359375-.273438-6.324218-1.515625-2.914063-.96875-6.433594 1.355469-8.757813 2.320313-2.324219 5.839844-2.871094 8.757813-1.355469 1.964843 1.023438 4.28125 1.125 6.328124.273438 2.042969-.847656 3.613282-2.554688 4.28125-4.667969.988282-3.128906 3.863282-5.234375 7.148438-5.234375s6.160156 2.105469 7.148438 5.234375c.667968 2.113281 2.234374 3.820313 4.28125 4.667969 2.046874.851562 4.363281.75 6.328124-.273438 2.914063-1.515625 6.433594-.96875 8.757813 1.355469s2.867187 5.84375 1.351563 8.757813c-1.019532 1.964843-1.117188 4.28125-.269532 6.328124.847656 2.042969 2.554688 3.609376 4.664063 4.277344 3.132812.992188 5.234375 3.867188 5.234375 7.152344v8.308594c-9.535156-9.746094-22.820313-15.808594-37.5-15.808594-14.675782 0-27.960938 6.0625-37.5 15.808594v-8.308594zm37.5 7.5c20.679688 0 37.5 16.820312 37.5 37.5s-16.820312 37.5-37.5 37.5-37.5-16.820312-37.5-37.5 16.820312-37.5 37.5-37.5zm0 0"
     id="path1568"
     style="fill:#9319b6;fill-opacity:1;opacity:1" />
  <path
     d="m508.886719 41.914062c-1.957031-1.40625-4.472657-1.792968-6.757813-1.027343l-45 15c-3.0625 1.019531-5.128906 3.886719-5.128906 7.113281v30.132812 39.460938l-9.871094 3.292969c-3.929687 1.308593-6.054687 5.554687-4.742187 9.484375 1.046875 3.144531 3.972656 5.132812 7.113281 5.132812.785156 0 1.585938-.125 2.371094-.390625l15-5c3.0625-1.019531 5.128906-3.886719 5.128906-7.113281v-39.59375l30-10v29.1875l-9.871094 3.292969c-3.929687 1.308593-6.054687 5.554687-4.742187 9.484375 1.308593 3.929687 5.554687 6.050781 9.484375 4.742187l15-5c3.0625-1.019531 5.128906-3.886719 5.128906-7.113281 0 0 0-45.132812 0-45.15625v-29.84375c0-2.410156-1.160156-4.675781-3.113281-6.085938zm-11.886719 30.679688-30 10v-14.1875l30-10zm0 0"
     id="path1570"
     style="fill:#9319b6;fill-opacity:1;opacity:1" />
  <path
     d="m444.5 165.5c-4.144531 0-7.5 3.355469-7.5 7.5v35c0 9.777344-6.269531 18.113281-15 21.210938v-36.210938c0-15.164062-12.335938-27.5-27.5-27.5h-50c-15.164062 0-27.5 12.335938-27.5 27.5v75c0 14.269531 5.730469 27.21875 15 36.691406v129.902344l-24.871094 8.292969c-3.929687 1.308593-6.054687 5.554687-4.742187 9.484375 1.046875 3.144531 3.972656 5.132812 7.113281 5.132812.785156 0 1.585938-.125 2.371094-.390625l30-10c3.0625-1.019531 5.128906-3.886719 5.128906-7.113281v-124.574219c6.824219 3.25 14.453125 5.074219 22.5 5.074219s15.675781-1.824219 22.5-5.074219v124.574219c0 3.230469 2.066406 6.09375 5.128906 7.113281l30 10c.785156.265625 1.585938.390625 2.371094.390625 3.140625 0 6.066406-1.988281 7.113281-5.132812 1.3125-3.929688-.8125-8.175782-4.742187-9.484375l-24.871094-8.292969v-129.902344c9.269531-9.472656 15-22.421875 15-36.691406v-23.253906c17.097656-3.484375 30-18.636719 30-36.746094v-35c0-4.144531-3.355469-7.5-7.5-7.5zm-75 140c-18.109375 0-33.261719-12.902344-36.746094-30h73.492188c-3.484375 17.097656-18.636719 30-36.746094 30zm37.5-45h-75v-67.5c0-6.894531 5.605469-12.5 12.5-12.5h50c6.894531 0 12.5 5.605469 12.5 12.5zm0 0"
     id="path1572"
     style="fill:#9319b6;fill-opacity:1;opacity:1" />
</svg>
