<svg viewBox="0 -27 512 511" xmlns="http://www.w3.org/2000/svg"><path d="m67.5 230.46875c-4.144531 0-7.5 3.359375-7.5 7.5v30c0 4.144531 3.355469 7.5 7.5 7.5s7.5-3.355469 7.5-7.5v-30c0-4.140625-3.355469-7.5-7.5-7.5zm0 0"/><path d="m295 117.96875c0-4.140625-3.355469-7.5-7.5-7.5s-7.5 3.359375-7.5 7.5c0 35.074219-26.890625 63.972656-61.136719 67.191406-3.375-11.371094-13.914062-19.691406-26.363281-19.691406h-50c-15.164062 0-27.5 12.339844-27.5 27.5v7.5h-5.117188c-10.035156-8.113281-22.140624-13.140625-34.882812-14.566406v-7.933594c0-4.140625-3.355469-7.5-7.5-7.5s-7.5 3.359375-7.5 7.5v7.929688c-33.703125 3.742187-60 32.386718-60 67.070312 0 37.222656 30.28125 67.5 67.5 67.5 11.449219 0 22.609375-2.917969 32.5-8.367188v15.867188c0 4.144531 3.355469 7.5 7.5 7.5h22.5v99.097656l-24.871094 8.289063c-3.929687 1.308593-6.054687 5.558593-4.742187 9.488281 1.046875 3.140625 3.972656 5.128906 7.113281 5.128906.785156 0 1.585938-.125 2.371094-.386718l30-10c3.066406-1.023438 5.128906-3.886719 5.128906-7.117188v-104.5h45v104.5c0 3.230469 2.066406 6.097656 5.128906 7.117188l30 10c.785156.261718 1.585938.386718 2.375.386718 3.136719 0 6.0625-1.988281 7.113282-5.128906 1.308593-3.933594-.816407-8.179688-4.746094-9.488281l-24.871094-8.289063v-99.097656h22.5c4.144531 0 7.5-3.355469 7.5-7.5v-35.332031c0-5.863281-.75-11.605469-2.214844-17.167969h54.714844c4.144531 0 7.5-3.355469 7.5-7.5v-30c0-4.140625-3.355469-7.5-7.5-7.5h-67.5v-30.355469c41.988281-3.804687 75-39.183593 75-82.144531zm-165 75c0-6.890625 5.605469-12.5 12.5-12.5h50c6.894531 0 12.5 5.609375 12.5 12.5v37.5h-45.753906c-2.992188-14.671875-14.574219-26.253906-29.246094-29.242188zm-22.859375 97.5c-1.828125 0-3.589844.667969-4.960937 1.878906-9.59375 8.460938-21.910157 13.121094-34.679688 13.121094-28.949219 0-52.5-23.550781-52.5-52.5 0-26.398438 19.59375-48.304688 45-51.953125v6.953125c0 4.144531 3.355469 7.5 7.5 7.5s7.5-3.355469 7.5-7.5v-6.953125c10.03125 1.453125 19.484375 5.789063 27.179688 12.578125 1.371093 1.210938 3.132812 1.875 4.960937 1.875h15.359375c9.777344 0 18.113281 6.273438 21.210938 15h-31.210938c-12.40625 0-22.5 10.09375-22.5 22.5s10.09375 22.5 22.5 22.5h31.210938c-3.097657 8.730469-11.433594 15-21.210938 15zm12.859375-37.5c0 4.136719-3.363281 7.5-7.5 7.5s-7.5-3.363281-7.5-7.5c0-4.132812 3.363281-7.5 7.5-7.5s7.5 3.367188 7.5 7.5zm100 67.5h-105v-15h7.5c18.109375 0 33.261719-12.902344 36.746094-30h57.863281c1.910156 5.496094 2.890625 11.25 2.890625 17.167969zm30-75h30v15h-30zm-15 0v15h-101.289062c.832031-2.347656 1.289062-4.871094 1.289062-7.5s-.457031-5.152344-1.289062-7.5h78.769531zm0 0"/><path d="m115 150.46875c8.535156 0 16.503906-3.652344 22.09375-9.742188 8.589844 6.125 19.082031 9.742188 30.40625 9.742188 11.328125 0 21.820312-3.617188 30.40625-9.742188 5.59375 6.089844 13.5625 9.742188 22.09375 9.742188 16.542969 0 30-13.457031 30-30 0-16.539062-13.457031-30-30-30h-.542969c-3.652343-25.40625-25.554687-45-51.957031-45s-48.304688 19.59375-51.953125 45h-.546875c-16.539062 0-30 13.460938-30 30 0 16.542969 13.460938 30 30 30zm104.457031-45h.542969c8.273438 0 15 6.730469 15 15 0 8.273438-6.726562 15-15 15-4.367188 0-8.4375-1.910156-11.242188-5.085938 5.566407-7.074218 9.359376-15.601562 10.699219-24.914062zm-15.433593-15.976562c-13.878907-3.222657-24.824219-14.164063-28.042969-28.042969 13.878906 3.222656 24.820312 14.164062 28.042969 28.042969zm-45-28.042969c-3.222657 13.878906-14.164063 24.820312-28.042969 28.042969 3.21875-13.878907 14.164062-24.820313 28.042969-28.042969zm8.476562 18.539062c7.859375 13.039063 21.230469 22.398438 36.859375 24.84375-3.234375 17.410157-18.523437 30.636719-36.859375 30.636719-18.332031 0-33.625-13.226562-36.859375-30.636719 15.628906-2.445312 29-11.800781 36.859375-24.84375zm-52.5 25.480469h.546875c1.335937 9.316406 5.132813 17.839844 10.699219 24.914062-2.804688 3.175782-6.878906 5.085938-11.246094 5.085938-8.269531 0-15-6.726562-15-15 0-8.269531 6.730469-15 15-15zm0 0"/><path d="m369.5 150.5c28.949219 0 52.5-23.550781 52.5-52.5v-45c0-7.269531-3.429688-13.863281-9-18.019531 1-6.875-1.238281-13.964844-6.375-19.101563-5.140625-5.140625-12.230469-7.375-19.105469-6.378906-4.15625-5.566406-10.75-9-18.019531-9s-13.863281 3.433594-18.019531 9c-6.875-1-13.964844 1.238281-19.101563 6.378906-5.140625 5.136719-7.378906 12.226563-6.378906 19.101563-5.566406 4.15625-9 10.75-9 18.019531v45c0 28.949219 23.550781 52.5 52.5 52.5zm-37.5-97.5c0-3.285156 2.105469-6.160156 5.234375-7.152344 2.113281-.667968 3.820313-2.234375 4.667969-4.28125.847656-2.042968.746094-4.359375-.273438-6.324218-1.515625-2.914063-.96875-6.433594 1.355469-8.757813 2.320313-2.324219 5.839844-2.871094 8.757813-1.355469 1.964843 1.023438 4.28125 1.125 6.328124.273438 2.042969-.847656 3.613282-2.554688 4.28125-4.667969.988282-3.128906 3.863282-5.234375 7.148438-5.234375s6.160156 2.105469 7.148438 5.234375c.667968 2.113281 2.234374 3.820313 4.28125 4.667969 2.046874.851562 4.363281.75 6.328124-.273438 2.914063-1.515625 6.433594-.96875 8.757813 1.355469s2.867187 5.84375 1.351563 8.757813c-1.019532 1.964843-1.117188 4.28125-.269532 6.328124.847656 2.042969 2.554688 3.609376 4.664063 4.277344 3.132812.992188 5.234375 3.867188 5.234375 7.152344v8.308594c-9.535156-9.746094-22.820313-15.808594-37.5-15.808594-14.675782 0-27.960938 6.0625-37.5 15.808594v-8.308594zm37.5 7.5c20.679688 0 37.5 16.820312 37.5 37.5s-16.820312 37.5-37.5 37.5-37.5-16.820312-37.5-37.5 16.820312-37.5 37.5-37.5zm0 0"/><path d="m508.886719 41.914062c-1.957031-1.40625-4.472657-1.792968-6.757813-1.027343l-45 15c-3.0625 1.019531-5.128906 3.886719-5.128906 7.113281v30.132812 39.460938l-9.871094 3.292969c-3.929687 1.308593-6.054687 5.554687-4.742187 9.484375 1.046875 3.144531 3.972656 5.132812 7.113281 5.132812.785156 0 1.585938-.125 2.371094-.390625l15-5c3.0625-1.019531 5.128906-3.886719 5.128906-7.113281v-39.59375l30-10v29.1875l-9.871094 3.292969c-3.929687 1.308593-6.054687 5.554687-4.742187 9.484375 1.308593 3.929687 5.554687 6.050781 9.484375 4.742187l15-5c3.0625-1.019531 5.128906-3.886719 5.128906-7.113281 0 0 0-45.132812 0-45.15625v-29.84375c0-2.410156-1.160156-4.675781-3.113281-6.085938zm-11.886719 30.679688-30 10v-14.1875l30-10zm0 0"/><path d="m444.5 165.5c-4.144531 0-7.5 3.355469-7.5 7.5v35c0 9.777344-6.269531 18.113281-15 21.210938v-36.210938c0-15.164062-12.335938-27.5-27.5-27.5h-50c-15.164062 0-27.5 12.335938-27.5 27.5v75c0 14.269531 5.730469 27.21875 15 36.691406v129.902344l-24.871094 8.292969c-3.929687 1.308593-6.054687 5.554687-4.742187 9.484375 1.046875 3.144531 3.972656 5.132812 7.113281 5.132812.785156 0 1.585938-.125 2.371094-.390625l30-10c3.0625-1.019531 5.128906-3.886719 5.128906-7.113281v-124.574219c6.824219 3.25 14.453125 5.074219 22.5 5.074219s15.675781-1.824219 22.5-5.074219v124.574219c0 3.230469 2.066406 6.09375 5.128906 7.113281l30 10c.785156.265625 1.585938.390625 2.371094.390625 3.140625 0 6.066406-1.988281 7.113281-5.132812 1.3125-3.929688-.8125-8.175782-4.742187-9.484375l-24.871094-8.292969v-129.902344c9.269531-9.472656 15-22.421875 15-36.691406v-23.253906c17.097656-3.484375 30-18.636719 30-36.746094v-35c0-4.144531-3.355469-7.5-7.5-7.5zm-75 140c-18.109375 0-33.261719-12.902344-36.746094-30h73.492188c-3.484375 17.097656-18.636719 30-36.746094 30zm37.5-45h-75v-67.5c0-6.894531 5.605469-12.5 12.5-12.5h50c6.894531 0 12.5 5.605469 12.5 12.5zm0 0"/></svg>