<svg id="Capa_1" enable-background="new 0 0 512 512" height="512" viewBox="0 0 512 512" width="512" xmlns="http://www.w3.org/2000/svg"><g><g><g><g><path d="m313.686 181.508c-1.524 0-3.057-.349-4.472-1.056-3.388-1.694-5.527-5.157-5.527-8.944v-21.018h-12.068c-11.33 0-20.548-9.217-20.548-20.547v-109.392c0-11.332 9.22-20.551 20.552-20.551h199.829c11.33 0 20.548 9.218 20.548 20.548v109.392c0 11.332-9.219 20.551-20.551 20.551h-133.065l-38.697 29.018c-1.764 1.322-3.876 1.999-6.001 1.999zm-22.063-161.508c-.305 0-.552.247-.552.551v109.393c0 .302.246.547.548.547h22.068c5.522 0 10 4.478 10 10v11.02l25.364-19.02c1.73-1.299 3.836-2 5.999-2h136.398c.304 0 .551-.247.551-.551v-109.392c0-.302-.246-.548-.548-.548z"/></g></g><g><g><g><path d="m450.036 58.751h-117c-5.522 0-10-4.478-10-10s4.478-10 10-10h117c5.522 0 10 4.478 10 10s-4.477 10-10 10z"/></g></g><g><g><path d="m450.036 105.757h-117c-5.522 0-10-4.478-10-10s4.478-10 10-10h117c5.522 0 10 4.478 10 10s-4.477 10-10 10z"/></g></g></g></g><g><g><g><g><path d="m165.982 140.286c-38.677 0-70.143-31.466-70.143-70.143s31.467-70.143 70.143-70.143c38.677 0 70.143 31.466 70.143 70.144 0 38.676-31.466 70.142-70.143 70.142zm0-120.286c-27.649 0-50.143 22.494-50.143 50.144 0 27.648 22.494 50.143 50.143 50.143s50.143-22.494 50.143-50.143c0-27.65-22.494-50.144-50.143-50.144z"/></g></g></g><g><g><g><g><path d="m219 310.34c-4.18 0-7.995-2.704-9.407-6.632-1.427-3.972-.13-8.579 3.191-11.198 3.242-2.556 7.808-2.846 11.354-.739 3.571 2.122 5.497 6.442 4.671 10.518-.934 4.615-5.095 8.051-9.809 8.051z"/></g></g></g></g></g><path d="m321.965 229.425h-72.635v-44.688c0-16.57-13.481-30.051-30.051-30.051h-106.593c-16.57 0-30.051 13.481-30.051 30.051v44.688h-25.826v-60.131l30.447-20.737c4.564-3.108 5.745-9.329 2.636-13.893s-9.328-5.745-13.895-2.636l-34.817 23.713c-2.734 1.862-4.371 4.956-4.371 8.265v65.419h-26.809c-5.523 0-10 4.477-10 10v60.917c0 5.522 4.477 10 10 10h20.018v191.658c0 5.522 4.477 10 10 10h251.929c5.522 0 10-4.478 10-10v-191.658h20.018c5.522 0 10-4.478 10-10v-60.917c0-5.523-4.478-10-10-10zm-219.33-44.688c0-5.542 4.509-10.051 10.051-10.051h106.592c5.542 0 10.051 4.509 10.051 10.051v44.688h-126.694zm209.33 105.605h-47.63c-5.523 0-10 4.478-10 10s4.477 10 10 10h17.612v181.658h-231.929v-181.658h120.313c5.523 0 10-4.478 10-10s-4.477-10-10-10h-150.331v-40.917h291.965z"/></g></svg>