<?xml version="1.0" encoding="iso-8859-1"?>
<!-- Generator: Adobe Illustrator 19.0.0, SVG Export Plug-In . SVG Version: 6.00 Build 0)  -->
<svg version="1.1" id="Layer_1" xmlns="http://www.w3.org/2000/svg" xmlns:xlink="http://www.w3.org/1999/xlink" x="0px" y="0px"
	 viewBox="0 0 512 512" style="enable-background:new 0 0 512 512;" xml:space="preserve">
<g>
	<g>
		<path d="M434.848,72.83c-4.181-4.081-10.877-4.002-14.96,0.178c-4.081,4.18-4.002,10.877,0.178,14.959
			c45.642,44.569,70.778,104.245,70.778,168.033c0,129.493-105.35,234.843-234.843,234.843S21.157,385.493,21.157,256
			S126.507,21.157,256,21.157c34.088,0,66.956,7.137,97.69,21.215c5.311,2.433,11.59,0.099,14.023-5.213
			c2.433-5.313,0.099-11.59-5.213-14.023C328.982,7.784,293.151,0,256,0C187.616,0,123.327,26.628,74.977,74.978
			C26.627,123.329,0,187.616,0,256s26.627,132.672,74.977,181.022C123.327,485.372,187.616,512,256,512
			s132.673-26.628,181.023-74.978C485.373,388.672,512,324.384,512,256C512,186.465,484.601,121.413,434.848,72.83z"/>
	</g>
</g>
<g>
	<g>
		<path d="M405.582,48.221c-2.173-1.567-4.403-3.122-6.626-4.621c-4.846-3.263-11.418-1.984-14.684,2.858
			c-3.267,4.844-1.987,11.418,2.858,14.684c2.039,1.374,4.082,2.799,6.074,4.237c1.872,1.35,4.036,2,6.18,2
			c3.284,0,6.521-1.524,8.589-4.391C411.391,58.251,410.32,51.639,405.582,48.221z"/>
	</g>
</g>
<g>
	<g>
		<path d="M115.651,177.622c-26.938,0-48.855,21.917-48.855,48.856c0,5.841,4.736,10.579,10.579,10.579
			c5.842,0,10.578-4.737,10.578-10.579c0-15.273,12.426-27.699,27.698-27.699c15.266,0,27.685,12.426,27.685,27.699
			c0,5.841,4.736,10.579,10.578,10.579s10.578-4.737,10.578-10.579C164.493,199.538,142.583,177.622,115.651,177.622z"/>
	</g>
</g>
<g>
	<g>
		<path d="M396.349,177.622c-26.932,0-48.842,21.917-48.842,48.856c0,5.841,4.736,10.579,10.578,10.579s10.578-4.737,10.578-10.579
			c0-15.273,12.419-27.699,27.685-27.699c15.272,0,27.698,12.426,27.698,27.699c0,5.841,4.736,10.579,10.578,10.579
			c5.843,0,10.579-4.737,10.579-10.579C445.204,199.538,423.289,177.622,396.349,177.622z"/>
	</g>
</g>
<g>
	<g>
		<path d="M344.69,277.46H168.337c-5.843,0-10.578,4.737-10.578,10.579v41.794c0,26.449,10.319,51.295,29.057,69.962
			c18.634,18.564,43.385,28.787,69.692,28.787c26.14,0,50.736-10.101,69.325-28.438c0.002-0.001,0.004-0.003,0.005-0.004
			c0.005-0.004,0.008-0.009,0.014-0.014c0.113-0.112,0.233-0.215,0.345-0.328c18.747-18.663,29.072-43.51,29.072-69.965v-41.794
			C355.269,282.197,350.533,277.46,344.69,277.46z M256.508,407.424c-16.93,0-33.034-5.396-46.353-15.358
			c9.582-7.814,26.767-19.05,46.365-19.05c19.588,0,36.766,11.234,46.343,19.049C289.543,402.028,273.439,407.424,256.508,407.424z
			 M318.018,377.124c-11.652-9.88-34.179-25.265-61.51-25.265c-27.321,0-49.85,15.383-61.506,25.264
			c-8.277-10.718-13.542-23.299-15.359-36.713h153.74C331.565,353.825,326.298,366.406,318.018,377.124z M334.112,319.253H178.915
			v-20.637h155.196V319.253z"/>
	</g>
</g>
<g>
</g>
<g>
</g>
<g>
</g>
<g>
</g>
<g>
</g>
<g>
</g>
<g>
</g>
<g>
</g>
<g>
</g>
<g>
</g>
<g>
</g>
<g>
</g>
<g>
</g>
<g>
</g>
<g>
</g>
</svg>
