<?xml version="1.0" encoding="UTF-8" standalone="no"?>
<svg
   xmlns:dc="http://purl.org/dc/elements/1.1/"
   xmlns:cc="http://creativecommons.org/ns#"
   xmlns:rdf="http://www.w3.org/1999/02/22-rdf-syntax-ns#"
   xmlns:svg="http://www.w3.org/2000/svg"
   xmlns="http://www.w3.org/2000/svg"
   xmlns:xlink="http://www.w3.org/1999/xlink"
   xmlns:sodipodi="http://sodipodi.sourceforge.net/DTD/sodipodi-0.dtd"
   xmlns:inkscape="http://www.inkscape.org/namespaces/inkscape"
   width="720"
   height="128"
   viewBox="0 0 190.49999 33.866669"
   version="1.1"
   id="svg8"
   sodipodi:docname="logo.svg"
   inkscape:version="1.0.1 (3bc2e813f5, 2020-09-07)">
  <defs
     id="defs2">
    <linearGradient
       inkscape:collect="always"
       id="linearGradient1320">
      <stop
         style="stop-color:#1b66b5;stop-opacity:1"
         offset="0"
         id="stop1316" />
      <stop
         style="stop-color:#22b2c5;stop-opacity:1;"
         offset="0.36442822"
         id="stop856" />
      <stop
         style="stop-color:#2affd5;stop-opacity:1"
         offset="0.5"
         id="stop852" />
      <stop
         style="stop-color:#7f7fbf;stop-opacity:1;"
         offset="0.61524779"
         id="stop854" />
      <stop
         style="stop-color:#d400aa;stop-opacity:1"
         offset="1"
         id="stop1318" />
    </linearGradient>
    <inkscape:path-effect
       effect="bspline"
       id="path-effect455"
       is_visible="true"
       lpeversion="1"
       weight="33.333333"
       steps="2"
       helper_size="0"
       apply_no_weight="true"
       apply_with_weight="true"
       only_selected="false" />
    <linearGradient
       inkscape:collect="always"
       xlink:href="#linearGradient1320"
       id="linearGradient1326"
       x1="0.00040755334"
       y1="47.479382"
       x2="190.49988"
       y2="47.479382"
       gradientUnits="userSpaceOnUse"
       gradientTransform="matrix(1.0001229,0,0,1.0330265,-0.01824933,-32.602563)" />
  </defs>
  <sodipodi:namedview
     id="base"
     pagecolor="#ffffff"
     bordercolor="#666666"
     borderopacity="1.0"
     inkscape:pageopacity="0.0"
     inkscape:pageshadow="2"
     inkscape:zoom="1.8166667"
     inkscape:cx="360.06896"
     inkscape:cy="65.788472"
     inkscape:document-units="px"
     inkscape:current-layer="layer1"
     inkscape:document-rotation="0"
     showgrid="false"
     showborder="true"
     inkscape:window-width="1920"
     inkscape:window-height="1017"
     inkscape:window-x="0"
     inkscape:window-y="27"
     inkscape:window-maximized="1"
     inkscape:snap-global="false"
     inkscape:showpageshadow="false"
     units="px"
     width="720px" />
  <metadata
     id="metadata5">
    <rdf:RDF>
      <cc:Work
         rdf:about="">
        <dc:format>image/svg+xml</dc:format>
        <dc:type
           rdf:resource="http://purl.org/dc/dcmitype/StillImage" />
        <dc:title></dc:title>
      </cc:Work>
    </rdf:RDF>
  </metadata>
  <g
     inkscape:label="Layer 1"
     inkscape:groupmode="layer"
     id="layer1">
    <path
       style="fill:none;stroke:url(#linearGradient1326);stroke-width:0.806701;stroke-linecap:butt;stroke-linejoin:miter;stroke-miterlimit:4;stroke-dasharray:none;stroke-opacity:1"
       d="M -1.3537503e-6,16.321013 C 6.6505077,16.321013 13.336051,16.321013 17.310335,16.888124 c 3.974283,0.56711 5.254745,1.701039 6.477792,1.057997 1.223047,-0.643042 2.399818,-3.085439 4.014589,-2.61189 1.61477,0.473548 3.678121,3.860497 5.267513,3.826223 1.589392,-0.03427 2.707735,-3.485032 4.25577,-2.461156 1.548035,1.023876 3.525553,6.522294 5.019234,4.710903 1.49368,-1.811392 2.503639,-10.932336 2.861812,-10.888229 0.358174,0.04411 0.0657,9.215958 0.502042,10.006983 0.436339,0.791025 1.594456,-6.81153 2.431704,-7.039959 0.837249,-0.22843 1.348797,6.948135 1.864851,6.88135 0.516055,-0.06679 1.036633,-7.376879 1.520392,-7.084318 0.483759,0.292562 0.930612,8.187549 2.445085,8.848767 1.514474,0.661218 4.096459,-5.911302 4.307964,-9.837366 0.211504,-3.9260636 -1.947864,-5.2052406 -2.247386,-1.104008 -0.299522,4.101232 1.261128,13.582455 3.513457,12.968742 2.25233,-0.613713 5.196299,-11.322011 5.840069,-16.6766727 0.64377,-5.354662 -1.013042,-5.354662 -1.355102,0.9003302 -0.34206,6.2549925 0.630967,18.7641635 2.705421,18.7641155 2.074454,-4.8e-5 5.250319,-12.509231 5.902474,-18.7641692 0.652154,-6.2549385 -1.219778,-6.2549385 -1.567644,-1.2026918 -0.347865,5.052247 0.828594,15.15652 2.46396,16.576492 1.635367,1.419972 3.72968,-5.844038 4.212917,-9.476315 0.483236,-3.632276 -0.641671,-3.632276 -1.161831,-1.623928 -0.52016,2.008348 -0.42923,6.001158 0.09207,7.991685 0.521301,1.990527 1.472303,1.966956 3.263103,-0.03546 1.790801,-2.00242 4.421425,-5.983561 5.795545,-9.802552 1.37412,-3.8189903 1.491843,-7.4766602 0.704311,-9.329595 -0.787533,-1.85293475 -2.480625,-1.90120372 -3.327325,4.2285226 -0.8467,6.1297264 -0.8467,18.4364384 -2.015132,23.8998734 -1.168431,5.463434 -3.505482,4.083011 -4.103345,2.112494 -0.597863,-1.970517 0.543883,-4.530852 3.33958,-7.182973 2.795697,-2.652121 7.244751,-5.395431 9.469427,-9.13154 C 92.028329,11.673666 92.028329,6.9447972 91.513098,4.566129 90.997867,2.1874607 89.967059,2.1591461 89.451556,6.0495198 88.936052,9.9398936 88.936052,17.748824 89.75361,20.52918 c 0.817558,2.780357 2.452551,0.53232 4.050821,-1.952228 1.59827,-2.484547 3.151733,-5.191602 3.337432,-6.55879 0.185699,-1.367189 -1.000407,-1.367189 -1.501145,1.000801 -0.500738,2.36799 -0.309879,7.103412 0.804843,9.47112 1.114723,2.367707 3.152919,2.367707 4.506269,-3.6e-5 1.35335,-2.367742 2.02193,-7.102776 1.83677,-9.470925 -0.18515,-2.368149 -1.22435,-2.368149 -1.5529,-3.77e-4 -0.32856,2.367771 0.0537,7.103305 0.86279,9.45922 0.80904,2.355915 2.04443,2.332012 3.11682,-0.750442 1.07239,-3.082453 1.98224,-9.224294 2.19147,-9.212331 0.20923,0.01196 -0.28214,6.177064 0.70146,9.259832 0.98361,3.082768 3.44115,3.082768 4.7209,0.71443 1.27976,-2.368338 1.38049,-7.102594 -0.23464,-9.470536 -1.61514,-2.367943 -4.94643,-2.367943 -4.58194,-0.734723 0.36449,1.633219 4.42044,4.895965 6.56239,4.895974 2.14194,9e-6 2.36112,-3.262648 2.068,-4.895921 -0.29313,-1.633273 -1.09902,-1.633273 -1.26223,0.734735 -0.16321,2.368008 0.31654,7.103494 1.67047,9.471152 1.35393,2.367657 3.58174,2.367657 4.82912,-7e-5 1.24738,-2.367727 1.51446,-7.102972 1.26555,-9.471031 -0.24892,-2.368059 -1.01406,-2.368059 -1.11951,1.0931 -0.10546,3.461158 0.44905,10.382744 2.90749,9.980383 2.45844,-0.402361 6.82057,-8.128366 7.68638,-12.137515 0.86581,-4.0091496 -1.76517,-4.3007583 -3.39945,-3.8496906 -1.63428,0.4510678 -2.2713,1.6447025 -0.71062,3.3140546 1.56068,1.669352 5.31861,3.814255 6.6441,7.142103 1.32549,3.327848 0.21879,7.838298 -2.20421,9.404001 -2.42299,1.565704 -6.16259,0.186601 -4.55216,-3.586866 1.61043,-3.773467 8.57109,-9.941078 11.92562,-10.189445 3.35453,-0.248368 3.10271,5.422218 3.84334,5.17589 0.74063,-0.246328 2.4737,-6.409482 4.43324,-6.337046 1.95954,0.07244 4.1452,6.380319 6.01424,6.890408 1.86904,0.51009 3.42154,-4.777576 5.10061,-5.558761 1.67906,-0.781185 3.48443,2.943978 5.9071,4.021808 2.42266,1.077829 5.46264,-0.491327 9.71197,-1.275886 4.24933,-0.784559 9.70779,-0.784559 15.166,-0.784559"
       id="path453"
       inkscape:path-effect="#path-effect455"
       inkscape:original-d="M -1.3537503e-6,16.321013 C 6.6505077,16.321287 13.336051,16.321287 20.003826,16.321013 c 1.280773,1.134243 2.561235,2.268171 3.841468,3.401859 1.142763,-2.430931 2.342969,-4.862037 3.514065,-7.293468 2.050797,3.382841 4.121547,6.765282 6.181927,10.14751 1.118642,-3.450635 2.236986,-6.901392 3.355105,-10.352507 1.977783,5.498717 3.955302,10.997134 5.932569,16.495299 1.010239,-9.120865 2.020195,-18.24181 3.029939,-27.3634031 C 45.565479,10.566088 45.273007,19.737938 44.9779,28.984308 46.145712,21.320024 47.303833,13.717469 48.46645,6.0834207 48.97827,13.26055 49.489818,20.437115 50.001126,27.613558 50.521966,20.303579 51.042547,12.993486 51.562894,5.6828008 52.010032,13.578576 52.456887,21.473563 52.903511,29.368777 55.485907,22.796136 58.067895,16.223618 60.649775,9.6504356 58.490535,8.3714534 56.331167,7.092276 54.171414,5.8127528 55.732378,15.29462 57.293033,24.775842 58.853453,34.256971 61.7978,23.548537 64.741769,12.840239 67.685705,2.1308283 c -1.656712,2.731e-4 -3.313524,2.731e-4 -4.970733,0 0.973331,12.5099657 1.946358,25.0191367 2.919141,37.5283157 3.176197,-12.509176 6.352062,-25.018359 9.527789,-37.5283157 -1.871732,2.731e-4 -3.743664,2.731e-4 -5.61588,0 1.176714,10.1044667 2.353173,20.2087397 3.529365,30.3127167 2.094629,-7.263915 4.188942,-14.527925 6.283095,-21.792569 -1.127997,2.73e-4 -2.252904,2.73e-4 -3.384699,0 0.09173,4.01669 0.182663,8.0095 0.273605,12.014141 0.95141,-0.0233 1.902412,-0.04687 2.853294,-0.07072 2.631021,-3.981068 5.261645,-7.962209 7.891875,-11.943424 0.117974,-3.6569615 0.235698,-7.3146314 0.353146,-10.97224946 -1.692795,-0.0479949 -3.385887,-0.0962639 -5.079279,-0.144807 2.64e-4,12.30773046 2.64e-4,24.61444246 0,36.92162346 -2.336914,-1.380226 -4.673965,-2.760649 -7.011396,-4.141412 1.142078,-2.560213 2.283824,-5.120548 3.42539,-7.681346 4.449701,-2.743272 8.898755,-5.486582 13.347911,-8.23039 2.65e-4,-4.728726 2.65e-4,-9.4575948 0,-14.1866261 -1.030469,-0.02804 -2.061277,-0.056354 -3.092277,-0.08494 2.65e-4,7.8090677 2.65e-4,15.6179981 0,23.4269161 1.635419,-2.247985 3.270412,-4.496022 4.905325,-6.744585 1.561641,-2.72057 3.115104,-5.427625 4.68393,-8.162184 -1.197745,2.73e-4 -2.383851,2.73e-4 -3.576208,0 0.191134,4.73597 0.381993,9.471392 0.572598,14.206817 2.038587,2.73e-4 4.076783,2.73e-4 6.114843,0 0.66894,-4.735443 1.33751,-9.470477 2.00597,-14.206817 -1.03906,2.73e-4 -2.07826,2.73e-4 -3.11767,0 0.38254,4.735524 0.76484,9.471058 1.14692,14.206817 1.23578,-0.02364 2.47117,-0.04753 3.70622,-0.07171 0.91002,-6.140966 1.81987,-12.282807 2.72949,-18.4251763 -0.49118,6.1662743 -0.98255,12.3313753 -1.47424,18.4968883 2.45862,2.74e-4 4.91616,2.74e-4 7.37488,0 0.10106,-4.73667 0.20179,-9.470926 0.30229,-14.206817 -3.33104,2.74e-4 -6.66233,2.74e-4 -9.99389,0 4.06051,3.266477 8.11646,6.529222 12.18075,9.798617 0.21991,-3.269395 0.43909,-6.532052 0.65825,-9.798617 -0.80569,2.74e-4 -1.61158,2.74e-4 -2.4178,0 0.48004,4.735992 0.95978,9.471479 1.43928,14.206817 2.22813,2.74e-4 4.45594,2.74e-4 6.6836,0 0.26738,-4.735438 0.53446,-9.470683 0.80132,-14.206817 -0.76497,2.74e-4 -1.53011,2.74e-4 -2.29558,0 0.5548,6.922298 1.10931,13.843883 1.66358,20.765632 4.36269,-7.726273 8.72481,-15.452278 13.08701,-23.1791555 -2.63092,-0.2913584 -5.2619,-0.582967 -7.89333,-0.8748694 -0.63679,1.1939643 -1.2738,2.3876025 -1.9111,3.5809979 3.75829,2.145231 7.51622,4.290133 11.27406,6.434862 -1.1065,4.51095 -2.2132,9.021401 -3.3202,13.531725 -3.73936,-1.378839 -7.47896,-2.757941 -11.21882,-4.137315 6.96103,-6.167431 13.92169,-12.335041 20.88234,-18.5031509 -0.25157,5.6711019 -0.50338,11.3416879 -0.75547,17.0121529 1.73337,-6.163048 3.46645,-12.326199 5.19934,-18.4899026 2.18603,6.3084346 4.3717,12.6163166 6.55715,18.9240756 1.55279,-5.287431 3.10529,-10.575099 4.65755,-15.8630924 1.80565,3.7254814 3.61102,7.4506444 5.41615,11.1755714 3.04027,-1.568895 6.08025,-3.138052 9.11999,-4.707493 5.45875,2.73e-4 10.91721,2.73e-4 16.37542,0"
       sodipodi:nodetypes="cccccccccccccccccccccccccccccccccccccccccccccccccccccccccccccccccccccccc" />
  </g>
</svg>
