<?xml version="1.0" encoding="UTF-8" standalone="no"?>
<svg
   xmlns:dc="http://purl.org/dc/elements/1.1/"
   xmlns:cc="http://creativecommons.org/ns#"
   xmlns:rdf="http://www.w3.org/1999/02/22-rdf-syntax-ns#"
   xmlns:svg="http://www.w3.org/2000/svg"
   xmlns="http://www.w3.org/2000/svg"
   xmlns:xlink="http://www.w3.org/1999/xlink"
   xmlns:sodipodi="http://sodipodi.sourceforge.net/DTD/sodipodi-0.dtd"
   xmlns:inkscape="http://www.inkscape.org/namespaces/inkscape"
   width="720"
   height="128"
   viewBox="0 0 190.49999 33.866669"
   version="1.1"
   id="svg8"
   sodipodi:docname="logo.svg"
   inkscape:version="1.0.1 (3bc2e813f5, 2020-09-07)">
  <defs
     id="defs2">
    <linearGradient
       inkscape:collect="always"
       id="linearGradient1320">
      <stop
         style="stop-color:#1b66b5;stop-opacity:1"
         offset="0"
         id="stop1316" />
      <stop
         style="stop-color:#d400aa;stop-opacity:1"
         offset="1"
         id="stop1318" />
    </linearGradient>
    <inkscape:path-effect
       effect="bspline"
       id="path-effect455"
       is_visible="true"
       lpeversion="1"
       weight="33.333333"
       steps="2"
       helper_size="0"
       apply_no_weight="true"
       apply_with_weight="true"
       only_selected="false" />
    <linearGradient
       inkscape:collect="always"
       xlink:href="#linearGradient1320"
       id="linearGradient1326"
       x1="0.00040755334"
       y1="47.479382"
       x2="190.49988"
       y2="47.479382"
       gradientUnits="userSpaceOnUse"
       gradientTransform="matrix(1.0001229,0,0,1.000792,-2.2430859e-6,-30.583032)" />
  </defs>
  <sodipodi:namedview
     id="base"
     pagecolor="#ffffff"
     bordercolor="#666666"
     borderopacity="1.0"
     inkscape:pageopacity="0.0"
     inkscape:pageshadow="2"
     inkscape:zoom="1.6178402"
     inkscape:cx="344.96005"
     inkscape:cy="185.10449"
     inkscape:document-units="px"
     inkscape:current-layer="layer1"
     inkscape:document-rotation="0"
     showgrid="false"
     showborder="true"
     inkscape:window-width="1920"
     inkscape:window-height="1017"
     inkscape:window-x="0"
     inkscape:window-y="27"
     inkscape:window-maximized="1"
     inkscape:snap-global="false"
     inkscape:showpageshadow="false"
     units="px"
     width="720px" />
  <metadata
     id="metadata5">
    <rdf:RDF>
      <cc:Work
         rdf:about="">
        <dc:format>image/svg+xml</dc:format>
        <dc:type
           rdf:resource="http://purl.org/dc/dcmitype/StillImage" />
        <dc:title></dc:title>
      </cc:Work>
    </rdf:RDF>
  </metadata>
  <g
     inkscape:label="Layer 1"
     inkscape:groupmode="layer"
     id="layer1">
    <path
       style="fill:none;stroke:url(#linearGradient1326);stroke-width:0.794113;stroke-linecap:butt;stroke-linejoin:miter;stroke-miterlimit:4;stroke-dasharray:none;stroke-opacity:1"
       d="m 0.01824573,16.971236 c 6.65050907,0 13.33605527,0 17.31033927,0.523193 3.974284,0.523193 5.254746,1.569306 6.47765,0.9204 1.222904,-0.648906 2.399961,-3.015665 4.014666,-2.556991 1.614705,0.458675 3.678184,3.740143 5.267577,3.706934 1.589393,-0.03321 2.707735,-3.376288 4.25577,-2.384357 1.548034,0.991931 3.525552,6.318776 5.019232,4.563905 1.493681,-1.754872 2.503639,-10.591206 2.861812,-10.548474 0.358174,0.04273 0.0657,8.928383 0.502042,9.694725 0.43634,0.766341 1.594456,-6.598985 2.431704,-6.820284 0.837249,-0.2213 1.348797,6.731328 1.864852,6.666625 0.516054,-0.0647 1.036632,-7.146692 1.520391,-6.863258 0.483759,0.283433 0.930612,7.932065 2.445087,8.572646 1.514475,0.640582 4.09646,-5.726848 4.307962,-9.530401 0.211502,-3.8035524 -1.947867,-5.0428139 -2.247387,-1.069555 -0.299521,3.973259 1.261129,13.15863 3.513459,12.777732 2.25233,-0.380898 5.196314,-10.327782 5.840082,-15.3396981 0.643768,-5.0119163 -1.013055,-5.0880216 -1.355115,0.7581101 -0.34206,5.846132 0.630966,17.613744 2.705421,17.620341 2.074454,0.0066 5.250326,-11.747758 5.902473,-17.598886 0.652147,-5.8511282 -1.219786,-5.7984303 -1.567647,-1.0860929 -0.347861,4.7123379 0.828598,14.0840919 2.427528,15.2731029 1.59893,1.189011 3.6204,-5.804512 4.278973,-9.337247 0.658574,-3.532735 -0.04404,-3.604188 -0.194235,-0.395261 -0.150193,3.208928 0.254059,9.660578 2.517973,7.64334 2.263914,-2.017239 6.386372,-12.5221315 6.316891,-17.73955 -0.06948,-5.21741843 -4.331111,-5.14721161 -4.374753,1.0936238 -0.04364,6.2408352 4.130778,18.6512342 3.777534,24.1799372 -0.353245,5.528702 -5.234432,4.175261 -4.637879,-1.565736 C 81.7972,22.389063 87.871815,12.260682 89.747289,7.357881 91.622764,2.4550797 89.298753,2.7783533 88.148805,7.8759904 86.998856,12.973628 87.023339,22.84492 88.326733,24.358638 c 1.303394,1.513719 3.872919,-5.296185 4.571664,-8.712898 0.698746,-3.416712 -0.487369,-3.372497 -0.988098,-0.904615 -0.500729,2.467881 -0.30987,7.358644 1.060555,9.569927 1.370426,2.211283 3.920079,1.74314 5.485383,-0.632672 1.565303,-2.375813 2.146283,-6.659098 2.166693,-8.792576 0.0204,-2.133478 -0.52004,-2.116316 -0.36872,0.182059 0.15133,2.298375 0.99459,6.87738 2.76317,8.809778 1.76858,1.932398 4.4621,1.218308 5.87669,-1.48848 1.41459,-2.706787 1.55025,-7.406321 -0.66278,-8.80313 -2.21302,-1.396809 -6.77484,0.50952 -6.41027,2.264717 0.36456,1.755197 5.64975,3.357417 8.39142,2.662025 2.74166,-0.695392 2.92853,-3.685586 2.63139,-5.151536 -0.29715,-1.46595 -1.07873,-1.404171 -1.22575,1.074418 -0.14702,2.478589 0.34075,7.373439 2.11574,9.347817 1.77499,1.974378 4.83699,1.028516 6.50152,-1.43009 1.66454,-2.458607 1.93163,-6.429929 1.68274,-8.568847 -0.24889,-2.138918 -1.01403,-2.444973 -1.11952,0.780068 -0.10548,3.225041 0.44903,9.980617 2.90747,9.615798 2.45844,-0.364819 6.82059,-7.849777 7.68639,-11.733807 0.8658,-3.8840299 -1.7652,-4.1665415 -3.39947,-3.7295545 -1.63427,0.4369869 -2.27129,1.5933825 -0.71061,3.2106465 1.56068,1.617265 5.31861,3.695237 6.6441,6.919242 1.32549,3.224004 0.21879,7.593712 -2.20421,9.11056 -2.423,1.516848 -6.16261,0.180775 -4.96927,-3.452014 1.19333,-3.632788 7.3198,-9.562096 10.88205,-9.779769 3.56225,-0.217674 4.55996,5.275972 5.92533,5.037303 1.36538,-0.23867 3.09845,-6.209508 5.05799,-6.139328 1.95954,0.07018 4.14521,6.181231 6.01424,6.675399 1.86904,0.494168 3.42155,-4.6285 5.10061,-5.385305 1.67906,-0.756806 3.48443,2.852117 5.9071,3.922528 2.42267,1.07041 5.46266,-0.39735 9.71198,-1.131208 4.24932,-0.733859 9.70778,-0.733859 15.16599,-0.733859"
       id="path453"
       inkscape:path-effect="#path-effect455"
       inkscape:original-d="m 0.01824573,16.971236 c 6.65050907,2.66e-4 13.33605527,2.66e-4 20.00382727,0 1.280772,1.046416 2.561235,2.092528 3.841468,3.138406 1.142763,-2.355076 2.342969,-4.710322 3.514065,-7.065883 2.050797,3.277283 4.121547,6.554179 6.181927,9.830868 1.118642,-3.342962 2.236986,-6.686041 3.355105,-10.029468 1.977783,5.327135 3.955302,10.65398 5.932569,15.98058 1.010239,-8.836258 2.020195,-17.672593 3.029939,-26.5095557 -0.29342,8.9224027 -0.585892,17.8080547 -0.880999,26.7659017 1.167812,-7.425128 2.325933,-14.790453 3.48855,-22.1862887 0.51182,6.9531737 1.023368,13.9058017 1.534676,20.8583107 0.52084,-7.081878 1.041421,-14.163867 1.561768,-21.2464297 0.447138,7.6493957 0.893993,15.2980277 1.340617,22.9468797 2.582396,-6.367549 5.164384,-12.734978 7.746264,-19.103051 C 58.508782,9.1124333 56.349414,7.8731713 54.189661,6.6335743 55.750625,15.819569 57.31128,25.004939 58.8717,34.19022 61.816037,24.243268 64.760023,14.296385 67.703952,4.3485613 66.047238,4.2727613 64.390417,4.1966073 62.733219,4.1202333 63.706548,15.8886 64.679574,27.656212 65.65236,39.423823 c 3.176184,-11.754316 6.352061,-23.50867 9.527789,-35.2637007 -1.871731,0.05299 -3.743665,0.105655 -5.61588,0.158096 1.176706,9.3719417 2.353162,18.7436967 3.529365,28.1151617 2.021745,-6.993328 4.04322,-13.986849 6.064471,-20.980774 -0.704433,-0.07145 -1.407054,-0.142855 -2.114055,-0.214989 0.406875,6.489741 0.811133,12.941391 1.216311,19.411698 4.122718,-10.504647 8.245176,-21.0095397 12.367381,-31.51470272 -4.261473,0.07045 -8.523103,0.140682 -12.785167,0.210625 C 82.017506,11.756642 86.191923,24.167042 90.366329,36.577901 85.485232,35.22468 80.604047,33.871231 75.722542,32.517514 81.797509,22.389248 87.872116,12.260863 93.946723,2.1318133 c -2.323918,0.323563 -4.64793,0.646829 -6.972351,0.969865 0.02471,9.8719487 0.04923,19.7432407 0.07345,29.6144547 2.582617,-6.843658 5.152141,-13.653563 7.747076,-20.531753 -1.197744,0.04495 -2.383861,0.08911 -3.576208,0.133309 0.191121,4.891308 0.381981,9.782071 0.572598,14.672852 2.550047,-0.467906 5.0997,-0.936049 7.649242,-1.404482 0.58129,-4.283454 1.16227,-8.56674 1.74309,-12.85089 -0.54027,0.01746 -1.08072,0.03463 -1.621459,0.05149 0.843569,4.579543 1.686829,9.15855 2.529909,13.737567 2.69397,-0.713875 5.38749,-1.427968 8.08093,-2.142368 0.13593,-4.699476 0.27157,-9.399011 0.40699,-14.098924 -4.56159,1.906599 -9.12341,3.81293 -13.685495,5.719003 5.291035,1.604181 10.576225,3.206398 15.872355,4.811749 0.18752,-2.996288 0.3744,-5.986482 0.56121,-8.980161 -0.78136,0.06202 -1.56294,0.123821 -2.34482,0.185341 0.48804,4.895356 0.97581,9.790206 1.46334,14.684917 3.06233,-0.945614 6.12433,-1.891476 9.1862,-2.837647 0.26736,-3.971343 0.53445,-7.942665 0.80132,-11.914555 -0.76497,-0.305822 -1.53011,-0.61188 -2.29558,-0.918227 0.55479,6.756271 1.10929,13.511848 1.66358,20.267584 4.36268,-7.485178 8.72482,-14.970138 13.08701,-22.4558737 -2.63092,-0.282266 -5.26192,-0.564778 -7.89333,-0.84757 -0.63678,1.156706 -1.2738,2.3131017 -1.9111,3.4692567 3.75829,2.07829 7.51622,4.156261 11.27406,6.234068 -1.10651,4.370188 -2.2132,8.739899 -3.3202,13.109482 -3.73936,-1.335817 -7.47897,-2.671892 -11.21882,-4.008215 6.12683,-5.929132 12.2533,-11.858443 18.37974,-17.7882297 0.998,5.4941387 1.99572,10.9877827 2.99319,16.4813067 1.73337,-5.970737 3.46645,-11.941573 5.19934,-17.9129447 2.18603,6.1115867 4.3717,12.2226377 6.55715,18.3335697 1.55279,-5.122443 3.10529,-10.245114 4.65755,-15.368101 1.80565,3.609231 3.61102,7.218154 5.41615,10.826849 3.04027,-1.467503 6.08025,-2.935265 9.11999,-4.403301 5.45875,2.66e-4 10.91721,2.66e-4 16.37542,0"
       sodipodi:nodetypes="cccccccccccccccccccccccccccccccccccccccccccccccccccccccccccccccc" />
  </g>
</svg>
