<?xml version="1.0" encoding="UTF-8" standalone="no"?>
<svg
   xmlns:dc="http://purl.org/dc/elements/1.1/"
   xmlns:cc="http://creativecommons.org/ns#"
   xmlns:rdf="http://www.w3.org/1999/02/22-rdf-syntax-ns#"
   xmlns:svg="http://www.w3.org/2000/svg"
   xmlns="http://www.w3.org/2000/svg"
   xmlns:xlink="http://www.w3.org/1999/xlink"
   xmlns:sodipodi="http://sodipodi.sourceforge.net/DTD/sodipodi-0.dtd"
   xmlns:inkscape="http://www.inkscape.org/namespaces/inkscape"
   width="690"
   height="90"
   viewBox="0 0 182.56249 23.812502"
   version="1.1"
   id="svg8"
   sodipodi:docname="logo.svg"
   inkscape:version="1.0.1 (3bc2e813f5, 2020-09-07)">
  <defs
     id="defs2">
    <inkscape:path-effect
       effect="bspline"
       id="path-effect1653"
       is_visible="true"
       lpeversion="1"
       weight="33.333333"
       steps="2"
       helper_size="0"
       apply_no_weight="true"
       apply_with_weight="true"
       only_selected="false" />
    <inkscape:path-effect
       effect="bspline"
       id="path-effect1619"
       is_visible="true"
       lpeversion="1"
       weight="33.333333"
       steps="2"
       helper_size="0"
       apply_no_weight="true"
       apply_with_weight="true"
       only_selected="false" />
    <inkscape:path-effect
       effect="bspline"
       id="path-effect1587"
       is_visible="true"
       lpeversion="1"
       weight="33.333333"
       steps="2"
       helper_size="0"
       apply_no_weight="true"
       apply_with_weight="true"
       only_selected="false" />
    <inkscape:path-effect
       effect="bspline"
       id="path-effect1585"
       is_visible="true"
       lpeversion="1"
       weight="33.333333"
       steps="2"
       helper_size="0"
       apply_no_weight="true"
       apply_with_weight="true"
       only_selected="false" />
    <inkscape:path-effect
       effect="bspline"
       id="path-effect1583"
       is_visible="true"
       lpeversion="1"
       weight="33.333333"
       steps="2"
       helper_size="0"
       apply_no_weight="true"
       apply_with_weight="true"
       only_selected="false" />
    <inkscape:path-effect
       effect="bspline"
       id="path-effect1525"
       is_visible="true"
       lpeversion="1"
       weight="33.333333"
       steps="2"
       helper_size="0"
       apply_no_weight="true"
       apply_with_weight="true"
       only_selected="false" />
    <inkscape:path-effect
       effect="bspline"
       id="path-effect1503"
       is_visible="true"
       lpeversion="1"
       weight="33.333333"
       steps="2"
       helper_size="0"
       apply_no_weight="true"
       apply_with_weight="true"
       only_selected="false" />
    <inkscape:path-effect
       effect="bspline"
       id="path-effect1269"
       is_visible="true"
       lpeversion="1"
       weight="33.333333"
       steps="2"
       helper_size="0"
       apply_no_weight="true"
       apply_with_weight="true"
       only_selected="false" />
    <inkscape:path-effect
       effect="bspline"
       id="path-effect1250"
       is_visible="true"
       lpeversion="1"
       weight="33.333333"
       steps="2"
       helper_size="0"
       apply_no_weight="true"
       apply_with_weight="true"
       only_selected="false" />
    <linearGradient
       inkscape:collect="always"
       id="linearGradient1320">
      <stop
         style="stop-color:#00aed8;stop-opacity:1"
         offset="0"
         id="stop1316" />
      <stop
         style="stop-color:#4be6cf;stop-opacity:1"
         offset="0.49966037"
         id="stop852" />
      <stop
         style="stop-color:#9319b6;stop-opacity:1"
         offset="1"
         id="stop1318" />
    </linearGradient>
    <inkscape:path-effect
       effect="bspline"
       id="path-effect455"
       is_visible="true"
       lpeversion="1"
       weight="33.333333"
       steps="2"
       helper_size="0"
       apply_no_weight="true"
       apply_with_weight="true"
       only_selected="false" />
    <linearGradient
       inkscape:collect="always"
       xlink:href="#linearGradient1320"
       id="linearGradient1326"
       x1="36.898712"
       y1="47.479382"
       x2="146.71786"
       y2="47.479382"
       gradientUnits="userSpaceOnUse"
       gradientTransform="matrix(1.1730291,0,0,1.0099989,-19.96203,-32.150423)" />
  </defs>
  <sodipodi:namedview
     id="base"
     pagecolor="#ffffff"
     bordercolor="#666666"
     borderopacity="1.0"
     inkscape:pageopacity="0.0"
     inkscape:pageshadow="2"
     inkscape:zoom="0.54098294"
     inkscape:cx="134.99035"
     inkscape:cy="252.22683"
     inkscape:document-units="px"
     inkscape:current-layer="layer1"
     inkscape:document-rotation="0"
     showgrid="false"
     showborder="true"
     inkscape:window-width="1920"
     inkscape:window-height="1017"
     inkscape:window-x="0"
     inkscape:window-y="27"
     inkscape:window-maximized="1"
     inkscape:snap-global="false"
     inkscape:showpageshadow="false"
     units="px"
     width="720px" />
  <metadata
     id="metadata5">
    <rdf:RDF>
      <cc:Work
         rdf:about="">
        <dc:format>image/svg+xml</dc:format>
        <dc:type
           rdf:resource="http://purl.org/dc/dcmitype/StillImage" />
        <dc:title></dc:title>
      </cc:Work>
    </rdf:RDF>
  </metadata>
  <g
     inkscape:label="Layer 1"
     inkscape:groupmode="layer"
     id="layer1">
    <g
       id="g1470"
       transform="matrix(0.85311757,0,0,0.72604284,13.991268,0.08895671)"
       style="stroke-width:2.67848;stroke-miterlimit:4;stroke-dasharray:none">
      <path
         style="fill:none;stroke:url(#linearGradient1326);stroke-width:2.67848;stroke-linecap:butt;stroke-linejoin:miter;stroke-miterlimit:4;stroke-dasharray:none;stroke-opacity:1"
         d="m -16.400186,15.74832 c 6.623267,0 13.2813522,0 17.34570454,0.903609 4.06435236,0.903608 5.55225626,2.710332 7.09627636,1.665839 1.54402,-1.044493 3.1443641,-4.940061 4.7364931,-3.53294 1.592129,1.40712 3.175865,8.116591 4.700084,6.579277 1.52422,-1.537314 2.988907,-11.32118 4.523526,-10.467199 1.534619,0.85398 3.139039,12.345857 5.445801,11.24406 C 29.754462,21.039168 32.763574,7.3440232 33.58364,8.4555409 34.403707,9.5670586 33.040181,25.42063 33.536497,24.702361 34.032813,23.984092 36.380951,6.705619 37.787899,7.0511835 39.194846,7.3967481 39.650898,25.436552 40.82519,25.794532 41.999481,26.152511 43.891992,8.828725 44.75661,6.7543524 45.621227,4.6799799 45.457852,17.854867 48.094496,21.733899 50.73114,25.612932 56.16745,20.195794 56.232485,14.35785 56.29752,8.5199056 50.991029,2.2615779 49.958711,7.3170916 48.926392,12.372605 52.168624,28.741584 55.811288,29.482848 59.453951,30.224111 63.496925,15.337986 64.226962,8.107805 64.956999,0.87762411 62.373823,1.304717 62.098151,8.7459827 61.822478,16.187248 63.854625,30.64116 66.709855,30.321954 69.565084,30.002748 73.243319,14.91026 73.707002,7.5062705 74.170685,0.10228063 71.41953,0.38758886 71.024003,6.9614994 c -0.395527,6.5739106 1.56483,19.4357316 3.788033,21.1040676 2.223203,1.668336 4.709166,-7.856306 5.145009,-12.636011 0.435844,-4.779705 -1.174178,-4.813037 -1.881791,-2.572047 -0.707612,2.240991 -0.50414,6.729361 0.640133,8.703706 1.144274,1.974346 3.228156,1.421397 5.126303,-0.304403 1.898147,-1.725801 3.610268,-4.624228 4.490341,-8.282428 0.880073,-3.6581987 0.927985,-8.0764804 -0.204145,-10.3262938 -1.132131,-2.24981336 -3.444532,-2.33085809 -3.373443,3.0186806 0.07109,5.3495382 2.525798,16.1280952 2.568673,21.3795872 0.04287,5.251492 -2.326402,4.975082 -3.28626,2.972023 -0.959858,-2.003059 -0.509828,-5.73247 1.429171,-6.518733 1.938999,-0.786262 5.366039,1.370931 7.426483,-2.00661 C 94.952955,18.115497 95.646672,9.2038217 95.372356,4.7732274 95.09804,0.34263298 93.855368,0.3941585 93.175389,6.4016972 92.495411,12.409236 92.378481,24.371625 93.750605,28.116898 c 1.372124,3.745272 4.23297,-0.726857 5.86423,-6.203227 1.631265,-5.47637 2.030365,-11.9231504 1.745315,-15.2034913 -0.28504,-3.2803409 -1.24885,-3.3278751 -1.930218,0.9186609 -0.681364,4.2465364 -1.074914,12.7856414 0.328473,17.0641054 1.403385,4.278464 4.602825,4.295012 6.739685,0.373755 2.13686,-3.921257 3.21066,-11.778759 3.12454,-15.9744172 -0.0861,-4.1956586 -1.33264,-4.7266911 -2.12164,-1.3033366 -0.789,3.4233548 -1.11996,10.8006558 -0.44161,14.4932308 0.67835,3.692575 2.36548,3.699435 3.52801,0.633228 1.16253,-3.066206 1.80086,-9.206196 1.94342,-8.808437 0.14255,0.39776 -0.21067,7.332428 1.38162,10.732575 1.5923,3.400148 5.12841,3.265055 7.04024,-1.565514 1.91183,-4.830568 2.19725,-14.3512854 -0.0206,-17.5848498 -2.21782,-3.2335644 -6.93895,-0.1768022 -6.97361,3.1964357 -0.0346,3.3732381 4.61203,7.0586901 7.92432,6.6090301 3.3123,-0.449659 5.27637,-5.032023 5.58211,-7.4271475 0.30573,-2.395124 -1.04941,-2.5972344 -1.78339,1.0472681 -0.73398,3.6445024 -0.84613,11.1340814 0.42213,14.7693664 1.26827,3.635285 3.9164,3.415698 5.99211,0.11025 2.07571,-3.305448 3.57877,-9.695857 3.49329,-13.12342 -0.0855,-3.4275633 -1.75981,-3.8904381 -1.97789,-1.1090935 -0.21808,2.7813445 1.02059,8.8054985 3.49694,9.3484845 2.47635,0.542987 6.19,-4.395423 7.33025,-7.25292 1.14026,-2.8574978 -0.29336,-3.6337152 -1.79462,-2.9953735 -1.50126,0.6383418 -3.06948,2.6912495 -2.31907,4.1562835 0.7504,1.465033 3.81904,2.341956 5.65481,3.982476 1.83578,1.64052 2.43871,4.04424 0.36949,5.647892 -2.06923,1.603651 -6.81066,2.407457 -6.53047,-0.132393 0.28018,-2.53985 5.58213,-8.423226 8.91215,-7.288698 3.33001,1.134527 4.68771,9.286579 6.21703,8.190385 1.52933,-1.096194 3.23029,-11.440465 5.2897,-12.357696 2.05941,-0.917232 4.47693,7.592583 6.32922,8.875261 1.85229,1.282679 3.13938,-4.661796 4.62392,-5.812634 1.48454,-1.150837 3.16624,2.491827 5.38197,3.561567 2.21574,1.069739 4.96537,-0.433225 8.55816,-1.184704 3.5928,-0.751478 8.02843,-0.751478 12.46375,-0.751478"
         id="path453"
         inkscape:path-effect="#path-effect455"
         inkscape:original-d="m -16.400186,15.74832 c 6.623267,3.61e-4 13.2813522,3.61e-4 19.9217465,0 1.488318,1.807211 2.9762216,3.613935 4.4639406,5.420449 C 9.5861731,17.273422 11.186516,13.377854 12.786566,9.4819862 14.370655,16.191892 15.954391,22.901363 17.537877,29.610844 19.002934,19.826842 20.467619,10.042976 21.932038,0.25858166 23.53674,11.750855 25.14116,23.242732 26.745326,34.734423 29.75477,21.039236 32.763882,7.3440909 35.772857,-6.3519024 34.403993,9.5670832 33.040466,25.420655 31.665555,41.403258 34.033108,23.984132 36.381247,6.7056592 38.738769,-10.644083 39.195104,7.3967416 39.651155,25.436546 40.106952,43.476461 41.999772,26.152543 43.892283,8.8287567 45.784617,-8.4960976 45.621496,4.6799832 45.45812,17.85487 45.294469,31.03043 50.731404,25.613197 56.167715,20.196059 61.60409,14.778327 56.297543,8.519886 50.991053,2.2615576 45.683948,-3.9974461 48.926596,12.372565 52.168828,28.741544 55.41087,45.110633 59.454265,30.224196 63.497238,15.338071 67.540263,0.45051672 64.957049,0.87792442 62.373873,1.3050173 59.790129,1.7318956 61.822702,16.187217 63.854848,30.641129 65.886815,45.095379 69.565395,30.002824 73.243629,14.910336 76.921746,-0.18301785 74.170715,0.10256954 71.41956,0.38787772 68.668018,0.67293412 70.628725,13.535372 72.589083,26.397193 74.549174,39.25894 c 2.486444,-9.524938 4.972406,-19.04958 7.45834,-28.575661 -1.614632,-0.03308 -3.224654,-0.06641 -4.844575,-0.100298 0.204996,4.515506 0.408468,9.003876 0.612255,13.505683 2.084577,-0.552689 4.168459,-1.105637 6.25242,-1.65905 1.712612,-2.898373 3.424732,-5.796801 5.136583,-8.69566 0.04822,-4.4177653 0.09613,-8.836047 0.143735,-13.25464028 -2.312189,-0.0806867 -4.62459,-0.16173147 -6.93747,-0.24314357 2.455287,10.78008985 4.909996,21.55864685 7.364676,32.33807485 -2.369184,-0.276074 -4.738461,-0.552484 -7.108199,-0.829273 0.450408,-3.729608 0.900438,-7.459019 1.350219,-11.1893 3.427793,2.157833 6.854833,4.315026 10.282029,6.472151 0.694104,-8.9123 1.387821,-17.8239751 2.081282,-26.73670549 -1.242414,0.0518891 -2.485086,0.10341471 -3.728116,0.15458071 C 92.495725,12.409239 92.378795,24.371628 92.261542,36.334834 c 2.861573,-4.472417 5.722417,-8.944547 8.583408,-13.41775 0.40148,-6.479762 0.80058,-12.9265428 1.20343,-19.4392442 -0.97329,-0.047655 -1.9371,-0.09519 -2.906181,-0.1433303 -0.3933,8.5408825 -0.78685,17.0799875 -1.18079,25.6203475 3.200381,0.01691 6.399821,0.03346 9.599531,0.04965 1.07437,-7.859014 2.14817,-15.716516 3.222,-23.5768865 -1.24651,-0.5308155 -2.49303,-1.0618495 -3.73996,-1.593267 -0.33067,7.3779625 -0.66162,14.7552645 -0.99295,22.1335375 1.6877,0.0072 3.37483,0.01408 5.06163,0.02058 0.63861,-6.139235 1.27694,-12.279225 1.91499,-18.4198448 -0.35297,6.9361188 -0.70618,13.8707878 -1.05977,20.8062248 3.53786,-0.134787 7.07397,-0.269879 10.61205,-0.405421 0.28589,-9.525959 0.57131,-19.0466758 0.8565,-28.57058576 -4.7209,3.05715046 -9.44203,6.11391426 -14.16354,9.17038196 4.65192,3.6896598 9.2986,7.3751138 13.95487,11.0681158 1.96873,-4.592193 3.93281,-9.174553 5.89897,-13.7628666 -1.35512,-0.2018092 -2.71026,-0.4039186 -4.066,-0.6064177 -0.11185,7.4912163 -0.22401,14.9807953 -0.33649,22.4709943 2.64872,-0.219249 5.29685,-0.438836 7.94498,-0.658811 1.50364,-6.391218 3.00669,-12.781628 4.5098,-19.1739404 -1.6745,-0.4626625 -3.34884,-0.9255364 -5.02395,-1.3888818 1.23924,6.0257492 2.47792,12.0499022 3.71649,18.0746762 3.7142,-4.938531 7.42784,-9.876943 11.14153,-14.8160248 -1.43352,-0.7760359 -2.86714,-1.5522554 -4.3012,-2.3288347 -1.56812,2.0533897 -3.13633,4.1063005 -4.70492,6.1590875 3.06905,0.877228 6.13769,1.754152 9.20624,2.63086 0.60323,2.404111 1.20617,4.807831 1.80887,7.211389 -4.74129,0.804092 -9.48272,1.607897 -14.22451,2.411456 5.30239,-5.883309 10.60434,-11.766683 15.90628,-17.6506118 1.35803,8.1526948 2.71572,16.3047478 4.07319,24.4567628 1.70128,-10.344317 3.40223,-20.688589 5.10301,-31.0336481 2.41791,8.5104981 4.83545,17.0203091 7.25277,25.5300961 1.28738,-5.944309 2.57446,-11.888786 3.86132,-17.8336806 1.68204,3.6430986 3.36373,7.2857656 5.04526,10.9283706 2.75005,-1.502667 5.49968,-3.005628 8.24907,-4.508995 4.43598,3.61e-4 8.87161,3.61e-4 13.30693,0"
         sodipodi:nodetypes="cccccccccccccccccccccccccccccccccccccccccccccccccccccccccccccccccccccccc" />
    </g>
  </g>
</svg>
